<svg width="297" height="303" viewBox="0 0 297 303" fill="none" xmlns="http://www.w3.org/2000/svg">
<path d="M215.775 210.438C259.909 195.072 284.158 167.799 295.325 131.168L295.91 129.889C275.367 139.239 275.309 140.615 254.233 149.935C240.677 157.553 217.608 157.849 204.321 176C207.367 187.45 205.267 214.097 215.775 210.438Z" fill="#333333"/>
<path d="M31.6969 166.68C-2.03624 199.055 -1.836 231.997 1.35051 252.775V254.182C14.9826 237.351 24.1632 229.309 41.5815 217.834C42.6609 217.123 43.6147 216.228 44.3537 215.167C52.656 203.253 55.8521 192.534 59.5148 170.338C51.983 161.198 39.7288 158.971 31.6969 166.68Z" fill="#333333"/>
<rect x="40.0469" y="18.1875" width="182.621" height="273.041" rx="91.3107" fill="#333333"/>
<path d="M144.608 0.851562C132.551 12.5253 123.163 17.5405 100.992 23.2679L135.538 19.7897C132.272 18.1459 138.698 15.784 144.608 0.851562Z" fill="#333333"/>
<path fill-rule="evenodd" clip-rule="evenodd" d="M169.64 142.728C184.639 142.728 196.798 125.888 196.798 105.116C196.798 84.3433 184.639 67.5039 169.64 67.5039C154.641 67.5039 142.482 84.3433 142.482 105.116C142.482 105.123 142.482 105.131 142.482 105.138H120.245L120.245 105.116C120.245 84.3434 108.086 67.504 93.0876 67.504C78.0887 67.504 65.9297 84.3434 65.9297 105.116C65.9297 125.888 78.0887 142.728 93.0876 142.728C94.987 142.728 96.841 142.458 98.6304 141.944C100.36 142.468 102.195 142.75 104.095 142.75H157.503C159.606 142.75 161.629 142.405 163.517 141.768C165.485 142.396 167.534 142.728 169.64 142.728Z" fill="white"/>
<path d="M144.836 103.73C134.308 101.228 128.376 101.099 117.848 103.73C120.822 113.237 124.264 116.358 133.205 118.543C139.818 114.895 142.36 111.653 144.836 103.73Z" fill="#FF9A00"/>
<path d="M81.3164 204.736C81.3164 177.11 103.712 154.715 131.338 154.715C158.963 154.715 181.359 177.11 181.359 204.736V241.896C181.359 256.943 169.161 269.141 154.114 269.141H108.561C93.5141 269.141 81.3164 256.943 81.3164 241.896V204.736Z" fill="white"/>
<path d="M166.005 302.985C157.456 302.244 149.632 294.033 146.789 290.02C159.172 288.374 171.64 282.56 178.799 277.93C184.495 278.077 187.98 279.569 189.905 280.805C191.026 281.524 191.987 282.816 191.343 283.982C191.292 284.075 191.235 284.167 191.174 284.257C190.003 285.989 187.276 286.659 186.671 288.66C186.254 290.038 186.006 291.451 184.826 292.275C183.245 293.378 181.052 293.781 179.364 293.93C175.546 294.284 176.056 300.897 172.425 302.131C170.184 302.892 167.621 303.058 166.005 302.985Z" fill="#FF9A00"/>
<path d="M61.5642 271.292C69.6634 292.395 80.9621 297.753 86.9955 297.938C88.161 297.974 89.3065 297.638 90.3289 297.078C101.797 290.788 101.726 271.591 100.16 262.41C98.7678 257.819 96.5909 256.634 94.6273 256.84C92.0297 257.112 90.0638 260.372 87.7592 259.142C86.8728 258.669 85.9346 257.923 85.0463 257.084C82.9187 255.077 80.6342 252.822 77.7092 252.807C73.8927 252.788 72.7562 255.616 72.7207 257.451C72.6801 260.239 72.1115 262.059 71.4477 263.188C70.6766 264.498 69.0208 264.514 67.5092 264.347C60.3122 263.552 60.4555 268.48 61.5642 271.292Z" fill="#FF9A00"/>
<path d="M222.456 145.423C167.869 158.617 79.0771 151.337 40.8913 145.762C40.1619 145.655 39.456 146.007 39.1894 146.694C38.5709 148.288 38.3932 150.245 39.5069 152.379C39.6238 152.603 39.706 153.036 39.5781 153.302C39.5411 153.379 39.4721 153.436 39.406 153.49C38.394 154.322 37.9351 154.945 37.6872 155.486C37.2636 156.412 37.1999 157.501 37.497 158.474C37.9267 159.882 38.8236 160.596 39.7124 160.766C123.741 175.544 193.991 167.588 220.712 161.318C222.096 160.993 223.323 160.109 223.335 158.687C223.347 157.414 223.064 156 222.836 155.192C222.653 154.541 222.648 154.161 222.691 153.807C222.794 152.959 223.262 152.174 223.608 151.393C223.723 151.135 223.803 150.869 223.858 150.603C224.216 148.868 224.721 145.897 223.049 145.311C222.8 145.224 222.712 145.361 222.456 145.423Z" fill="#76B4C0"/>
<path d="M152.415 170.674C151.608 160.736 145.363 155.501 143.068 152.86L145.381 152.86L146.203 152.86C154.352 157.846 157.794 163.393 158.515 166.45C158.362 166.634 158.205 166.808 158.046 166.972C155.904 169.264 153.325 170.805 152.415 170.674Z" fill="#639AA4"/>
<ellipse cx="46.1591" cy="150.796" rx="2.92868" ry="2.93257" fill="white"/>
<ellipse cx="52.0107" cy="159.022" rx="2.92868" ry="2.93257" fill="white"/>
<ellipse cx="71.9834" cy="157.362" rx="2.92868" ry="2.93257" fill="white"/>
<mask id="mask0_70_37833" style="mask-type:alpha" maskUnits="userSpaceOnUse" x="37" y="145" width="188" height="25">
<path d="M222.386 145.579C167.798 158.774 79.0068 151.494 40.8209 145.918C40.0916 145.812 39.3857 146.163 39.1191 146.85C38.5006 148.444 38.3229 150.402 39.4366 152.536C39.5535 152.76 39.6357 153.192 39.5078 153.458C39.4708 153.535 39.4017 153.592 39.3357 153.647C38.3237 154.478 37.8648 155.101 37.6169 155.643C37.1933 156.568 37.1296 157.657 37.4267 158.63C37.8564 160.038 38.7532 160.752 39.6421 160.922C123.671 175.7 193.921 167.744 220.641 161.474C222.025 161.149 223.252 160.265 223.265 158.843C223.276 157.57 222.994 156.156 222.766 155.348C222.583 154.698 222.578 154.318 222.621 153.963C222.724 153.115 223.192 152.331 223.538 151.55C223.653 151.291 223.733 151.025 223.788 150.759C224.145 149.024 224.65 146.053 222.979 145.467C222.729 145.38 222.642 145.517 222.386 145.579Z" fill="#76B4C0"/>
</mask>
<g mask="url(#mask0_70_37833)">
<ellipse cx="62.9365" cy="150.792" rx="2.92868" ry="2.93257" fill="white"/>
<ellipse cx="62.9365" cy="163.753" rx="2.92868" ry="2.93257" fill="white"/>
<ellipse cx="83.0849" cy="151.706" rx="2.92868" ry="2.93257" fill="white"/>
<ellipse cx="95.5381" cy="166.733" rx="2.92868" ry="2.93257" fill="white"/>
<ellipse cx="109.183" cy="153.78" rx="2.92868" ry="2.93257" fill="white"/>
<ellipse cx="119.862" cy="167.788" rx="2.92868" ry="2.93257" fill="white"/>
<ellipse cx="133.194" cy="154.737" rx="2.92868" ry="2.93257" fill="white"/>
<ellipse cx="147.116" cy="167.788" rx="2.92868" ry="2.93257" fill="white"/>
<ellipse cx="172.585" cy="153.151" rx="2.92868" ry="2.93257" fill="white"/>
<ellipse cx="186.948" cy="166.116" rx="2.92868" ry="2.93257" fill="white"/>
<ellipse cx="193.827" cy="151.843" rx="2.92868" ry="2.93257" fill="white"/>
</g>
<ellipse cx="84.1865" cy="161.905" rx="2.92868" ry="2.93256" fill="white"/>
<ellipse cx="98.0888" cy="157.366" rx="2.92868" ry="2.93257" fill="white"/>
<ellipse cx="109.202" cy="163.249" rx="2.92868" ry="2.93257" fill="white"/>
<ellipse cx="124.183" cy="159.022" rx="2.92868" ry="2.93257" fill="white"/>
<ellipse cx="135.671" cy="164.788" rx="2.92868" ry="2.93257" fill="white"/>
<ellipse cx="175.585" cy="163.253" rx="2.92868" ry="2.93257" fill="white"/>
<ellipse cx="183.976" cy="156.96" rx="2.92868" ry="2.93257" fill="white"/>
<ellipse cx="196.722" cy="160.265" rx="2.92868" ry="2.93256" fill="white"/>
<ellipse cx="145.433" cy="157.483" rx="2.92868" ry="2.93257" fill="white"/>
<path fill-rule="evenodd" clip-rule="evenodd" d="M147.935 158.921C146.732 157.197 145.475 155.813 144.438 154.707C144.734 154.606 145.052 154.551 145.382 154.551C147 154.551 148.311 155.864 148.311 157.483C148.311 158.006 148.175 158.496 147.935 158.921Z" fill="#D5D6D6"/>
<path fill-rule="evenodd" clip-rule="evenodd" d="M209.349 163.766C208.933 162.654 207.862 161.863 206.606 161.863C205.027 161.863 203.739 163.115 203.68 164.682C205.663 164.382 207.554 164.075 209.349 163.766Z" fill="white"/>
<ellipse cx="206.491" cy="156.042" rx="2.92868" ry="2.93256" fill="white"/>
<path fill-rule="evenodd" clip-rule="evenodd" d="M212.291 147.751C212.239 147.971 212.211 148.2 212.211 148.435C212.211 150.055 213.522 151.367 215.14 151.367C216.757 151.367 218.068 150.055 218.068 148.435C218.068 147.792 217.862 147.198 217.512 146.715C215.8 147.078 214.059 147.424 212.291 147.751Z" fill="white"/>
<ellipse cx="216.233" cy="157.683" rx="2.92868" ry="2.93257" fill="white"/>
<path fill-rule="evenodd" clip-rule="evenodd" d="M222.744 155.043C221.748 155.511 221.059 156.524 221.059 157.699C221.059 158.874 221.749 159.888 222.747 160.356C223.1 159.951 223.318 159.45 223.323 158.855C223.334 157.582 223.052 156.168 222.824 155.36C222.792 155.247 222.765 155.141 222.744 155.043Z" fill="white"/>
<path d="M145.536 195.919C147.773 185.891 147.63 174.196 147.218 169.126L152.048 169.047L153.486 169.023C159.364 183.47 156.826 196.514 154.822 201.23C152.008 201.874 149.66 201.692 147.894 201.21C145.678 200.605 145.036 198.162 145.536 195.919Z" fill="#6EA9B4"/>
<path d="M146.934 200.87C155.463 187.03 151.866 174.82 151.404 169.126L156.233 169.047L157.672 169.023C163.55 183.47 161.012 196.514 159.008 201.23C158.63 201.324 158.257 201.4 157.89 201.462C152.87 202.398 148.002 201.924 146.934 200.87Z" fill="#639AA4"/>
<ellipse cx="155.55" cy="180.983" rx="2.92868" ry="2.93257" fill="#D5D6D6"/>
<ellipse cx="154.186" cy="195.585" rx="2.92868" ry="2.93257" fill="#D5D6D6"/>
<ellipse cx="150.561" cy="188.515" rx="2.92868" ry="2.93257" fill="white"/>
<path fill-rule="evenodd" clip-rule="evenodd" d="M151.094 191.383C151.611 189.557 151.955 187.788 152.17 186.09C152.938 186.619 153.442 187.504 153.442 188.508C153.442 189.929 152.433 191.113 151.094 191.383Z" fill="#D5D6D6"/>
<ellipse cx="150.98" cy="173.882" rx="2.6204" ry="2.62388" fill="white"/>
<path fill-rule="evenodd" clip-rule="evenodd" d="M152.273 176.172C152.125 174.711 151.937 173.375 151.769 172.182C151.729 171.894 151.69 171.615 151.652 171.344C152.779 171.637 153.611 172.663 153.611 173.883C153.611 174.866 153.072 175.723 152.273 176.172Z" fill="#D5D6D6"/>
<path d="M151.519 9.36582C136.953 17.6917 132.384 21.0502 109.487 21.1103L138.054 25.47C135.295 23.0687 142.105 22.3712 151.519 9.36582Z" fill="#333333"/>
<path d="M152.53 149.359C151.283 149.392 150.195 149.537 149.24 149.751C146.329 150.406 145.744 153.939 147.316 156.476C156.819 171.811 158.053 185.205 156.539 194.466C155.813 198.91 159.603 204.248 164.072 203.692L167.75 203.234C169.961 202.959 171.785 201.332 172.18 199.14C175.855 178.786 170.231 161.229 165.382 151.983C163.99 149.33 161.302 147.792 158.405 148.557C158.349 148.572 158.294 148.587 158.238 148.602C156.381 149.103 154.453 149.308 152.53 149.359Z" fill="#6EA9B4"/>
<ellipse cx="161.44" cy="154.401" rx="2.92868" ry="2.93257" fill="white"/>
<ellipse cx="156.487" cy="161.722" rx="2.92868" ry="2.93257" fill="white"/>
<ellipse cx="165.136" cy="167.792" rx="2.92868" ry="2.93257" fill="white"/>
<ellipse cx="160.104" cy="176.112" rx="2.92868" ry="2.93257" fill="white"/>
<ellipse cx="167.976" cy="180.948" rx="2.92868" ry="2.93257" fill="white"/>
<ellipse cx="162.452" cy="191.249" rx="2.92868" ry="2.93257" fill="white"/>
<ellipse cx="167.976" cy="198.44" rx="2.92868" ry="2.93256" fill="white"/>
<ellipse cx="93.52" cy="96.7276" rx="8.91061" ry="8.92293" fill="#333333"/>
<ellipse cx="96.6144" cy="100.153" rx="1.27065" ry="1.10644" fill="#9DDDFF"/>
<ellipse cx="172.172" cy="96.7276" rx="8.91061" ry="8.92293" fill="#333333"/>
<ellipse cx="174.975" cy="100.716" rx="1.04967" ry="1.10644" fill="#9DDDFF"/>
</svg>
