<svg width="212" height="82" viewBox="0 0 212 82" fill="none" xmlns="http://www.w3.org/2000/svg">
<rect width="212" height="82" rx="9" fill="#1877F2"/>
<g clip-path="url(#clip0_70_38040)">
<path d="M75 35C75 50.4734 63.6632 63.2984 48.8438 65.6234V43.9609H56.067L57.4414 35H48.8438V29.1851C48.8438 26.7329 50.045 24.3438 53.8958 24.3438H57.8047V16.7148C57.8047 16.7148 54.2566 16.1094 50.8648 16.1094C43.7845 16.1094 39.1562 20.4009 39.1562 28.1703V35H31.2852V43.9609H39.1562V65.6234C24.3368 63.2984 13 50.4734 13 35C13 17.8798 26.8798 4 44 4C61.1202 4 75 17.8798 75 35Z" fill="#1877F2"/>
<path d="M56.067 43.9609L57.4414 35H48.8438V29.185C48.8438 26.7334 50.0448 24.3438 53.8957 24.3438H57.8047V16.7148C57.8047 16.7148 54.2571 16.1094 50.8654 16.1094C43.7843 16.1094 39.1562 20.4009 39.1562 28.1703V35H31.2852V43.9609H39.1562V65.6233C40.7346 65.8709 42.3522 66 44 66C45.6478 66 47.2654 65.8709 48.8438 65.6233V43.9609H56.067Z" fill="white"/>
</g>
<path d="M79.728 50V32.12H91.656V35H82.992V39.944H90.576V42.824H82.992V50H79.728ZM96.4674 50.288C95.5554 50.288 94.7634 50.136 94.0914 49.832C93.4194 49.528 92.8994 49.096 92.5314 48.536C92.1634 47.96 91.9794 47.296 91.9794 46.544C91.9794 45.824 92.1394 45.184 92.4594 44.624C92.7794 44.048 93.2754 43.568 93.9474 43.184C94.6194 42.8 95.4674 42.528 96.4914 42.368L100.763 41.672V44.072L97.0914 44.696C96.4674 44.808 96.0034 45.008 95.6994 45.296C95.3954 45.584 95.2434 45.96 95.2434 46.424C95.2434 46.872 95.4114 47.232 95.7474 47.504C96.0994 47.76 96.5314 47.888 97.0434 47.888C97.6994 47.888 98.2754 47.752 98.7714 47.48C99.2834 47.192 99.6754 46.8 99.9474 46.304C100.235 45.808 100.379 45.264 100.379 44.672V41.312C100.379 40.752 100.155 40.288 99.7074 39.92C99.2754 39.536 98.6994 39.344 97.9794 39.344C97.3074 39.344 96.7074 39.528 96.1794 39.896C95.6674 40.248 95.2914 40.72 95.0514 41.312L92.4834 40.064C92.7394 39.376 93.1394 38.784 93.6834 38.288C94.2434 37.776 94.8994 37.376 95.6514 37.088C96.4034 36.8 97.2194 36.656 98.0994 36.656C99.1714 36.656 100.115 36.856 100.931 37.256C101.747 37.64 102.379 38.184 102.827 38.888C103.291 39.576 103.523 40.384 103.523 41.312V50H100.547V47.768L101.219 47.72C100.883 48.28 100.483 48.752 100.019 49.136C99.5554 49.504 99.0274 49.792 98.4354 50C97.8434 50.192 97.1874 50.288 96.4674 50.288ZM112.237 50.288C110.941 50.288 109.773 49.992 108.733 49.4C107.709 48.792 106.901 47.976 106.309 46.952C105.717 45.912 105.421 44.744 105.421 43.448C105.421 42.152 105.717 40.992 106.309 39.968C106.901 38.944 107.709 38.136 108.733 37.544C109.773 36.952 110.941 36.656 112.237 36.656C113.165 36.656 114.029 36.824 114.829 37.16C115.629 37.48 116.317 37.928 116.893 38.504C117.485 39.064 117.909 39.736 118.165 40.52L115.405 41.72C115.165 41.064 114.757 40.536 114.181 40.136C113.621 39.736 112.973 39.536 112.237 39.536C111.549 39.536 110.933 39.704 110.389 40.04C109.861 40.376 109.445 40.84 109.141 41.432C108.837 42.024 108.685 42.704 108.685 43.472C108.685 44.24 108.837 44.92 109.141 45.512C109.445 46.104 109.861 46.568 110.389 46.904C110.933 47.24 111.549 47.408 112.237 47.408C112.989 47.408 113.645 47.208 114.205 46.808C114.765 46.408 115.165 45.872 115.405 45.2L118.165 46.448C117.909 47.184 117.493 47.848 116.917 48.44C116.341 49.016 115.653 49.472 114.853 49.808C114.053 50.128 113.181 50.288 112.237 50.288ZM126.263 50.288C124.919 50.288 123.743 49.984 122.735 49.376C121.727 48.768 120.943 47.944 120.383 46.904C119.823 45.864 119.543 44.712 119.543 43.448C119.543 42.136 119.823 40.976 120.383 39.968C120.959 38.944 121.735 38.136 122.711 37.544C123.703 36.952 124.807 36.656 126.023 36.656C127.047 36.656 127.943 36.824 128.711 37.16C129.495 37.496 130.159 37.96 130.703 38.552C131.247 39.144 131.663 39.824 131.951 40.592C132.239 41.344 132.383 42.16 132.383 43.04C132.383 43.264 132.367 43.496 132.335 43.736C132.319 43.976 132.279 44.184 132.215 44.36H122.135V41.96H130.439L128.951 43.088C129.095 42.352 129.055 41.696 128.831 41.12C128.623 40.544 128.271 40.088 127.775 39.752C127.295 39.416 126.711 39.248 126.023 39.248C125.367 39.248 124.783 39.416 124.271 39.752C123.759 40.072 123.367 40.552 123.095 41.192C122.839 41.816 122.743 42.576 122.807 43.472C122.743 44.272 122.847 44.984 123.119 45.608C123.407 46.216 123.823 46.688 124.367 47.024C124.927 47.36 125.567 47.528 126.287 47.528C127.007 47.528 127.615 47.376 128.111 47.072C128.623 46.768 129.023 46.36 129.311 45.848L131.855 47.096C131.599 47.72 131.199 48.272 130.655 48.752C130.111 49.232 129.463 49.608 128.711 49.88C127.975 50.152 127.159 50.288 126.263 50.288ZM141.414 50.288C140.47 50.288 139.598 50.104 138.798 49.736C138.014 49.352 137.39 48.808 136.926 48.104L137.238 47.48V50H134.286V31.832H137.43V39.536L136.95 38.888C137.398 38.184 138.006 37.64 138.774 37.256C139.542 36.856 140.43 36.656 141.438 36.656C142.67 36.656 143.782 36.96 144.774 37.568C145.766 38.176 146.55 38.992 147.126 40.016C147.718 41.04 148.014 42.192 148.014 43.472C148.014 44.736 147.726 45.888 147.15 46.928C146.574 47.968 145.79 48.792 144.798 49.4C143.806 49.992 142.678 50.288 141.414 50.288ZM141.054 47.408C141.774 47.408 142.414 47.24 142.974 46.904C143.534 46.568 143.966 46.104 144.27 45.512C144.59 44.92 144.75 44.24 144.75 43.472C144.75 42.704 144.59 42.032 144.27 41.456C143.966 40.864 143.534 40.4 142.974 40.064C142.414 39.712 141.774 39.536 141.054 39.536C140.366 39.536 139.742 39.704 139.182 40.04C138.638 40.376 138.206 40.848 137.886 41.456C137.582 42.048 137.43 42.72 137.43 43.472C137.43 44.24 137.582 44.92 137.886 45.512C138.206 46.104 138.638 46.568 139.182 46.904C139.742 47.24 140.366 47.408 141.054 47.408ZM156.315 50.288C155.035 50.288 153.867 49.992 152.811 49.4C151.771 48.808 150.939 48 150.315 46.976C149.707 45.952 149.403 44.784 149.403 43.472C149.403 42.16 149.707 40.992 150.315 39.968C150.939 38.944 151.771 38.136 152.811 37.544C153.851 36.952 155.019 36.656 156.315 36.656C157.595 36.656 158.755 36.952 159.795 37.544C160.835 38.136 161.659 38.944 162.267 39.968C162.891 40.976 163.203 42.144 163.203 43.472C163.203 44.784 162.891 45.952 162.267 46.976C161.643 48 160.811 48.808 159.771 49.4C158.731 49.992 157.579 50.288 156.315 50.288ZM156.315 47.408C157.019 47.408 157.635 47.24 158.163 46.904C158.707 46.568 159.131 46.104 159.435 45.512C159.755 44.904 159.915 44.224 159.915 43.472C159.915 42.704 159.755 42.032 159.435 41.456C159.131 40.864 158.707 40.4 158.163 40.064C157.635 39.712 157.019 39.536 156.315 39.536C155.595 39.536 154.963 39.712 154.419 40.064C153.875 40.4 153.443 40.864 153.123 41.456C152.819 42.032 152.667 42.704 152.667 43.472C152.667 44.224 152.819 44.904 153.123 45.512C153.443 46.104 153.875 46.568 154.419 46.904C154.963 47.24 155.595 47.408 156.315 47.408ZM171.491 50.288C170.211 50.288 169.043 49.992 167.987 49.4C166.947 48.808 166.115 48 165.491 46.976C164.883 45.952 164.579 44.784 164.579 43.472C164.579 42.16 164.883 40.992 165.491 39.968C166.115 38.944 166.947 38.136 167.987 37.544C169.027 36.952 170.195 36.656 171.491 36.656C172.771 36.656 173.931 36.952 174.971 37.544C176.011 38.136 176.835 38.944 177.443 39.968C178.067 40.976 178.379 42.144 178.379 43.472C178.379 44.784 178.067 45.952 177.443 46.976C176.819 48 175.987 48.808 174.947 49.4C173.907 49.992 172.755 50.288 171.491 50.288ZM171.491 47.408C172.195 47.408 172.811 47.24 173.339 46.904C173.883 46.568 174.307 46.104 174.611 45.512C174.931 44.904 175.091 44.224 175.091 43.472C175.091 42.704 174.931 42.032 174.611 41.456C174.307 40.864 173.883 40.4 173.339 40.064C172.811 39.712 172.195 39.536 171.491 39.536C170.771 39.536 170.139 39.712 169.595 40.064C169.051 40.4 168.619 40.864 168.299 41.456C167.995 42.032 167.843 42.704 167.843 43.472C167.843 44.224 167.995 44.904 168.299 45.512C168.619 46.104 169.051 46.568 169.595 46.904C170.139 47.24 170.771 47.408 171.491 47.408ZM180.284 50V31.832H183.428V43.736L182.228 43.376L188.372 36.944H192.284L187.46 42.2L192.38 50H188.78L184.508 43.232L186.38 42.848L182.444 47.072L183.428 45.152V50H180.284Z" fill="white"/>
<defs>
<clipPath id="clip0_70_38040">
<rect width="62" height="62" fill="white" transform="translate(13 4)"/>
</clipPath>
</defs>
</svg>
