<svg width="212" height="82" viewBox="0 0 212 82" fill="none" xmlns="http://www.w3.org/2000/svg">
<rect width="212" height="82" rx="9" fill="url(#paint0_linear_70_38047)"/>
<path d="M85.728 50V32.12H88.992V50H85.728ZM91.6871 50V36.944H94.6391V39.512L94.3991 39.056C94.7031 38.272 95.1991 37.68 95.8871 37.28C96.5911 36.864 97.4071 36.656 98.3351 36.656C99.2951 36.656 100.143 36.864 100.879 37.28C101.631 37.696 102.215 38.28 102.631 39.032C103.047 39.768 103.255 40.624 103.255 41.6V50H100.111V42.344C100.111 41.768 99.9991 41.272 99.7751 40.856C99.5511 40.44 99.2391 40.12 98.8391 39.896C98.4551 39.656 97.9991 39.536 97.4711 39.536C96.9591 39.536 96.5031 39.656 96.1031 39.896C95.7031 40.12 95.3911 40.44 95.1671 40.856C94.9431 41.272 94.8311 41.768 94.8311 42.344V50H91.6871ZM110.402 50.288C109.01 50.288 107.794 49.96 106.754 49.304C105.73 48.632 105.026 47.728 104.642 46.592L106.994 45.464C107.33 46.2 107.794 46.776 108.386 47.192C108.994 47.608 109.666 47.816 110.402 47.816C110.978 47.816 111.434 47.688 111.77 47.432C112.106 47.176 112.274 46.84 112.274 46.424C112.274 46.168 112.202 45.96 112.058 45.8C111.93 45.624 111.746 45.48 111.506 45.368C111.282 45.24 111.034 45.136 110.762 45.056L108.626 44.456C107.522 44.136 106.682 43.648 106.106 42.992C105.546 42.336 105.266 41.56 105.266 40.664C105.266 39.864 105.466 39.168 105.866 38.576C106.282 37.968 106.85 37.496 107.57 37.16C108.306 36.824 109.146 36.656 110.09 36.656C111.322 36.656 112.41 36.952 113.354 37.544C114.298 38.136 114.97 38.968 115.37 40.04L112.97 41.168C112.746 40.576 112.37 40.104 111.842 39.752C111.314 39.4 110.722 39.224 110.066 39.224C109.538 39.224 109.122 39.344 108.818 39.584C108.514 39.824 108.362 40.136 108.362 40.52C108.362 40.76 108.426 40.968 108.554 41.144C108.682 41.32 108.858 41.464 109.082 41.576C109.322 41.688 109.594 41.792 109.898 41.888L111.986 42.512C113.058 42.832 113.882 43.312 114.458 43.952C115.05 44.592 115.346 45.376 115.346 46.304C115.346 47.088 115.138 47.784 114.722 48.392C114.306 48.984 113.73 49.448 112.994 49.784C112.258 50.12 111.394 50.288 110.402 50.288ZM123.234 50.144C121.762 50.144 120.618 49.744 119.802 48.944C119.002 48.128 118.602 46.984 118.602 45.512V39.752H116.346V36.944H116.586C117.226 36.944 117.722 36.776 118.074 36.44C118.426 36.104 118.602 35.616 118.602 34.976V33.968H121.746V36.944H124.746V39.752H121.746V45.344C121.746 45.776 121.818 46.144 121.962 46.448C122.122 46.752 122.362 46.984 122.682 47.144C123.018 47.304 123.442 47.384 123.954 47.384C124.066 47.384 124.194 47.376 124.338 47.36C124.498 47.344 124.65 47.328 124.794 47.312V50C124.57 50.032 124.314 50.064 124.026 50.096C123.738 50.128 123.474 50.144 123.234 50.144ZM130.629 50.288C129.717 50.288 128.925 50.136 128.253 49.832C127.581 49.528 127.061 49.096 126.693 48.536C126.325 47.96 126.141 47.296 126.141 46.544C126.141 45.824 126.301 45.184 126.621 44.624C126.941 44.048 127.437 43.568 128.109 43.184C128.781 42.8 129.629 42.528 130.653 42.368L134.925 41.672V44.072L131.253 44.696C130.629 44.808 130.165 45.008 129.861 45.296C129.557 45.584 129.405 45.96 129.405 46.424C129.405 46.872 129.573 47.232 129.909 47.504C130.261 47.76 130.693 47.888 131.205 47.888C131.861 47.888 132.437 47.752 132.933 47.48C133.445 47.192 133.837 46.8 134.109 46.304C134.397 45.808 134.541 45.264 134.541 44.672V41.312C134.541 40.752 134.317 40.288 133.869 39.92C133.437 39.536 132.861 39.344 132.141 39.344C131.469 39.344 130.869 39.528 130.341 39.896C129.829 40.248 129.453 40.72 129.213 41.312L126.645 40.064C126.901 39.376 127.301 38.784 127.845 38.288C128.405 37.776 129.061 37.376 129.813 37.088C130.565 36.8 131.381 36.656 132.261 36.656C133.333 36.656 134.277 36.856 135.093 37.256C135.909 37.64 136.541 38.184 136.989 38.888C137.453 39.576 137.685 40.384 137.685 41.312V50H134.709V47.768L135.381 47.72C135.045 48.28 134.645 48.752 134.181 49.136C133.717 49.504 133.189 49.792 132.597 50C132.005 50.192 131.349 50.288 130.629 50.288ZM146.447 55.28C145.471 55.28 144.567 55.12 143.735 54.8C142.903 54.48 142.183 54.032 141.575 53.456C140.983 52.896 140.551 52.232 140.279 51.464L143.207 50.36C143.399 50.968 143.775 51.456 144.335 51.824C144.911 52.208 145.615 52.4 146.447 52.4C147.087 52.4 147.647 52.28 148.127 52.04C148.623 51.8 149.007 51.448 149.279 50.984C149.551 50.536 149.687 49.992 149.687 49.352V46.376L150.287 47.096C149.839 47.88 149.239 48.472 148.487 48.872C147.735 49.272 146.879 49.472 145.919 49.472C144.703 49.472 143.615 49.192 142.655 48.632C141.695 48.072 140.943 47.304 140.399 46.328C139.855 45.352 139.583 44.256 139.583 43.04C139.583 41.808 139.855 40.712 140.399 39.752C140.943 38.792 141.687 38.04 142.631 37.496C143.575 36.936 144.647 36.656 145.847 36.656C146.823 36.656 147.679 36.864 148.415 37.28C149.167 37.68 149.791 38.264 150.287 39.032L149.855 39.824V36.944H152.831V49.352C152.831 50.488 152.551 51.504 151.991 52.4C151.447 53.296 150.695 54 149.735 54.512C148.791 55.024 147.695 55.28 146.447 55.28ZM146.303 46.568C146.975 46.568 147.559 46.424 148.055 46.136C148.567 45.832 148.967 45.416 149.255 44.888C149.543 44.36 149.687 43.752 149.687 43.064C149.687 42.392 149.535 41.792 149.231 41.264C148.943 40.72 148.543 40.296 148.031 39.992C147.535 39.688 146.959 39.536 146.303 39.536C145.647 39.536 145.055 39.688 144.527 39.992C143.999 40.296 143.583 40.72 143.279 41.264C142.991 41.792 142.847 42.392 142.847 43.064C142.847 43.736 142.991 44.336 143.279 44.864C143.583 45.392 143.991 45.808 144.503 46.112C145.031 46.416 145.631 46.568 146.303 46.568ZM155.287 50V36.944H158.239V39.848L157.999 39.416C158.303 38.44 158.775 37.76 159.415 37.376C160.071 36.992 160.855 36.8 161.767 36.8H162.535V39.584H161.407C160.511 39.584 159.791 39.864 159.247 40.424C158.703 40.968 158.431 41.736 158.431 42.728V50H155.287ZM167.744 50.288C166.832 50.288 166.04 50.136 165.368 49.832C164.696 49.528 164.176 49.096 163.808 48.536C163.44 47.96 163.256 47.296 163.256 46.544C163.256 45.824 163.416 45.184 163.736 44.624C164.056 44.048 164.552 43.568 165.224 43.184C165.896 42.8 166.744 42.528 167.768 42.368L172.04 41.672V44.072L168.368 44.696C167.744 44.808 167.28 45.008 166.976 45.296C166.672 45.584 166.52 45.96 166.52 46.424C166.52 46.872 166.688 47.232 167.024 47.504C167.376 47.76 167.808 47.888 168.32 47.888C168.976 47.888 169.552 47.752 170.048 47.48C170.56 47.192 170.952 46.8 171.224 46.304C171.512 45.808 171.656 45.264 171.656 44.672V41.312C171.656 40.752 171.432 40.288 170.984 39.92C170.552 39.536 169.976 39.344 169.256 39.344C168.584 39.344 167.984 39.528 167.456 39.896C166.944 40.248 166.568 40.72 166.328 41.312L163.76 40.064C164.016 39.376 164.416 38.784 164.96 38.288C165.52 37.776 166.176 37.376 166.928 37.088C167.68 36.8 168.496 36.656 169.376 36.656C170.448 36.656 171.392 36.856 172.208 37.256C173.024 37.64 173.656 38.184 174.104 38.888C174.568 39.576 174.8 40.384 174.8 41.312V50H171.824V47.768L172.496 47.72C172.16 48.28 171.76 48.752 171.296 49.136C170.832 49.504 170.304 49.792 169.712 50C169.12 50.192 168.464 50.288 167.744 50.288ZM177.226 50V36.944H180.178V39.968L179.842 39.464C180.082 38.52 180.562 37.816 181.282 37.352C182.002 36.888 182.85 36.656 183.826 36.656C184.898 36.656 185.842 36.936 186.658 37.496C187.474 38.056 188.002 38.792 188.242 39.704L187.354 39.776C187.754 38.736 188.354 37.96 189.154 37.448C189.954 36.92 190.874 36.656 191.914 36.656C192.842 36.656 193.666 36.864 194.386 37.28C195.122 37.696 195.698 38.28 196.114 39.032C196.53 39.768 196.738 40.624 196.738 41.6V50H193.594V42.344C193.594 41.768 193.49 41.272 193.282 40.856C193.074 40.44 192.786 40.12 192.418 39.896C192.05 39.656 191.602 39.536 191.074 39.536C190.578 39.536 190.138 39.656 189.754 39.896C189.37 40.12 189.074 40.44 188.866 40.856C188.658 41.272 188.554 41.768 188.554 42.344V50H185.41V42.344C185.41 41.768 185.306 41.272 185.098 40.856C184.89 40.44 184.594 40.12 184.21 39.896C183.842 39.656 183.402 39.536 182.89 39.536C182.394 39.536 181.954 39.656 181.57 39.896C181.186 40.12 180.89 40.44 180.682 40.856C180.474 41.272 180.37 41.768 180.37 42.344V50H177.226Z" fill="white"/>
<path d="M61.1781 11H30.8228C26.8929 11.0042 23.1251 12.5673 20.3462 15.3462C17.5673 18.1251 16.0042 21.8929 16 25.8228V56.1772C16.0042 60.1072 17.5673 63.8749 20.3462 66.6538C23.1251 69.4327 26.8929 70.9958 30.8228 71H61.1781C65.108 70.9958 68.8757 69.4327 71.6544 66.6538C74.4332 63.8749 75.996 60.1071 76 56.1772V25.8228C75.996 21.8929 74.4332 18.1251 71.6544 15.3462C68.8757 12.5673 65.108 11.0042 61.1781 11ZM70.3047 56.1772C70.302 58.597 69.3396 60.917 67.6287 62.6283C65.9178 64.3396 63.598 65.3024 61.1781 65.3056H30.8228C28.4028 65.3027 26.0828 64.3399 24.3717 62.6286C22.6605 60.9173 21.698 58.5972 21.6953 56.1772V25.8228C21.698 23.4028 22.6605 21.0827 24.3717 19.3714C26.0828 17.6601 28.4028 16.6974 30.8228 16.6944H61.1781C63.598 16.6976 65.9178 17.6604 67.6287 19.3717C69.3396 21.083 70.302 23.403 70.3047 25.8228V56.1772Z" fill="white"/>
<path d="M46.0053 26.7031C43.1796 26.7033 40.4173 27.5414 38.0679 29.1115C35.7184 30.6815 33.8873 32.913 32.8061 35.5237C31.7248 38.1344 31.442 41.0071 31.9934 43.7786C32.5448 46.55 33.9056 49.0957 35.9038 51.0937C37.902 53.0918 40.4478 54.4525 43.2192 55.0037C45.9907 55.5549 48.8634 55.2719 51.4741 54.1905C54.0847 53.109 56.3161 51.2778 57.8859 48.9282C59.4558 46.5787 60.2938 43.8164 60.2938 40.9906C60.2895 37.2025 58.7828 33.5707 56.1041 30.8922C53.4253 28.2136 49.7935 26.7071 46.0053 26.7031ZM46.0053 49.5838C44.3058 49.5836 42.6445 49.0794 41.2315 48.1351C39.8185 47.1908 38.7172 45.8486 38.067 44.2784C37.4167 42.7082 37.2467 40.9805 37.5784 39.3136C37.91 37.6468 38.7285 36.1157 39.9303 34.914C41.1321 33.7124 42.6633 32.894 44.3302 32.5625C45.997 32.2311 47.7248 32.4013 49.2949 33.0517C50.8651 33.7021 52.2071 34.8035 53.1512 36.2166C54.0954 37.6298 54.5994 39.2911 54.5994 40.9906C54.5971 43.2691 53.691 45.4537 52.0797 47.0647C50.4685 48.6758 48.2838 49.5818 46.0053 49.5838Z" fill="white"/>
<path d="M60.8772 22.3203C60.1229 22.3201 59.3854 22.5436 58.7581 22.9626C58.1308 23.3815 57.6419 23.9771 57.3531 24.674C57.0643 25.3708 56.9886 26.1377 57.1357 26.8775C57.2827 27.6174 57.6459 28.297 58.1792 28.8305C58.7125 29.3639 59.3921 29.7272 60.1319 29.8745C60.8717 30.0217 61.6386 29.9462 62.3355 29.6576C63.0324 29.369 63.6281 28.8802 64.0472 28.253C64.4663 27.6258 64.69 26.8884 64.69 26.1341C64.69 25.1228 64.2883 24.1529 63.5733 23.4377C62.8583 22.7225 61.8885 22.3206 60.8772 22.3203Z" fill="white"/>
<defs>
<linearGradient id="paint0_linear_70_38047" x1="4" y1="79" x2="208.5" y2="-8.37313e-06" gradientUnits="userSpaceOnUse">
<stop stop-color="#5D66DD"/>
<stop offset="0.158054" stop-color="#7853B8"/>
<stop offset="0.302738" stop-color="#8A48A0"/>
<stop offset="0.47088" stop-color="#99408C"/>
<stop offset="0.662216" stop-color="#B2376E"/>
<stop offset="0.825" stop-color="#C1345D"/>
<stop offset="1" stop-color="#ED3838"/>
</linearGradient>
</defs>
</svg>
