<svg width="212" height="82" viewBox="0 0 212 82" fill="none" xmlns="http://www.w3.org/2000/svg">
<rect width="212" height="82" rx="9" fill="#1877F2"/>
<path d="M79.728 50V32.12H82.992V50H79.728ZM85.6871 50V36.944H88.6391V39.512L88.3991 39.056C88.7031 38.272 89.1991 37.68 89.8871 37.28C90.5911 36.864 91.4071 36.656 92.3351 36.656C93.2951 36.656 94.1431 36.864 94.8791 37.28C95.6311 37.696 96.2151 38.28 96.6311 39.032C97.0471 39.768 97.2551 40.624 97.2551 41.6V50H94.1111V42.344C94.1111 41.768 93.9991 41.272 93.7751 40.856C93.5511 40.44 93.2391 40.12 92.8391 39.896C92.4551 39.656 91.9991 39.536 91.4711 39.536C90.9591 39.536 90.5031 39.656 90.1031 39.896C89.7031 40.12 89.3911 40.44 89.1671 40.856C88.9431 41.272 88.8311 41.768 88.8311 42.344V50H85.6871ZM104.402 50.288C103.01 50.288 101.794 49.96 100.754 49.304C99.7297 48.632 99.0257 47.728 98.6417 46.592L100.994 45.464C101.33 46.2 101.794 46.776 102.386 47.192C102.994 47.608 103.666 47.816 104.402 47.816C104.978 47.816 105.434 47.688 105.77 47.432C106.106 47.176 106.274 46.84 106.274 46.424C106.274 46.168 106.202 45.96 106.058 45.8C105.93 45.624 105.746 45.48 105.506 45.368C105.282 45.24 105.034 45.136 104.762 45.056L102.626 44.456C101.522 44.136 100.682 43.648 100.106 42.992C99.5457 42.336 99.2657 41.56 99.2657 40.664C99.2657 39.864 99.4657 39.168 99.8657 38.576C100.282 37.968 100.85 37.496 101.57 37.16C102.306 36.824 103.146 36.656 104.09 36.656C105.322 36.656 106.41 36.952 107.354 37.544C108.298 38.136 108.97 38.968 109.37 40.04L106.97 41.168C106.746 40.576 106.37 40.104 105.842 39.752C105.314 39.4 104.722 39.224 104.066 39.224C103.538 39.224 103.122 39.344 102.818 39.584C102.514 39.824 102.362 40.136 102.362 40.52C102.362 40.76 102.426 40.968 102.554 41.144C102.682 41.32 102.858 41.464 103.082 41.576C103.322 41.688 103.594 41.792 103.898 41.888L105.986 42.512C107.058 42.832 107.882 43.312 108.458 43.952C109.05 44.592 109.346 45.376 109.346 46.304C109.346 47.088 109.138 47.784 108.722 48.392C108.306 48.984 107.73 49.448 106.994 49.784C106.258 50.12 105.394 50.288 104.402 50.288ZM117.234 50.144C115.762 50.144 114.618 49.744 113.802 48.944C113.002 48.128 112.602 46.984 112.602 45.512V39.752H110.346V36.944H110.586C111.226 36.944 111.722 36.776 112.074 36.44C112.426 36.104 112.602 35.616 112.602 34.976V33.968H115.746V36.944H118.746V39.752H115.746V45.344C115.746 45.776 115.818 46.144 115.962 46.448C116.122 46.752 116.362 46.984 116.682 47.144C117.018 47.304 117.442 47.384 117.954 47.384C118.066 47.384 118.194 47.376 118.338 47.36C118.498 47.344 118.65 47.328 118.794 47.312V50C118.57 50.032 118.314 50.064 118.026 50.096C117.738 50.128 117.474 50.144 117.234 50.144ZM124.629 50.288C123.717 50.288 122.925 50.136 122.253 49.832C121.581 49.528 121.061 49.096 120.693 48.536C120.325 47.96 120.141 47.296 120.141 46.544C120.141 45.824 120.301 45.184 120.621 44.624C120.941 44.048 121.437 43.568 122.109 43.184C122.781 42.8 123.629 42.528 124.653 42.368L128.925 41.672V44.072L125.253 44.696C124.629 44.808 124.165 45.008 123.861 45.296C123.557 45.584 123.405 45.96 123.405 46.424C123.405 46.872 123.573 47.232 123.909 47.504C124.261 47.76 124.693 47.888 125.205 47.888C125.861 47.888 126.437 47.752 126.933 47.48C127.445 47.192 127.837 46.8 128.109 46.304C128.397 45.808 128.541 45.264 128.541 44.672V41.312C128.541 40.752 128.317 40.288 127.869 39.92C127.437 39.536 126.861 39.344 126.141 39.344C125.469 39.344 124.869 39.528 124.341 39.896C123.829 40.248 123.453 40.72 123.213 41.312L120.645 40.064C120.901 39.376 121.301 38.784 121.845 38.288C122.405 37.776 123.061 37.376 123.813 37.088C124.565 36.8 125.381 36.656 126.261 36.656C127.333 36.656 128.277 36.856 129.093 37.256C129.909 37.64 130.541 38.184 130.989 38.888C131.453 39.576 131.685 40.384 131.685 41.312V50H128.709V47.768L129.381 47.72C129.045 48.28 128.645 48.752 128.181 49.136C127.717 49.504 127.189 49.792 126.597 50C126.005 50.192 125.349 50.288 124.629 50.288ZM140.447 55.28C139.471 55.28 138.567 55.12 137.735 54.8C136.903 54.48 136.183 54.032 135.575 53.456C134.983 52.896 134.551 52.232 134.279 51.464L137.207 50.36C137.399 50.968 137.775 51.456 138.335 51.824C138.911 52.208 139.615 52.4 140.447 52.4C141.087 52.4 141.647 52.28 142.127 52.04C142.623 51.8 143.007 51.448 143.279 50.984C143.551 50.536 143.687 49.992 143.687 49.352V46.376L144.287 47.096C143.839 47.88 143.239 48.472 142.487 48.872C141.735 49.272 140.879 49.472 139.919 49.472C138.703 49.472 137.615 49.192 136.655 48.632C135.695 48.072 134.943 47.304 134.399 46.328C133.855 45.352 133.583 44.256 133.583 43.04C133.583 41.808 133.855 40.712 134.399 39.752C134.943 38.792 135.687 38.04 136.631 37.496C137.575 36.936 138.647 36.656 139.847 36.656C140.823 36.656 141.679 36.864 142.415 37.28C143.167 37.68 143.791 38.264 144.287 39.032L143.855 39.824V36.944H146.831V49.352C146.831 50.488 146.551 51.504 145.991 52.4C145.447 53.296 144.695 54 143.735 54.512C142.791 55.024 141.695 55.28 140.447 55.28ZM140.303 46.568C140.975 46.568 141.559 46.424 142.055 46.136C142.567 45.832 142.967 45.416 143.255 44.888C143.543 44.36 143.687 43.752 143.687 43.064C143.687 42.392 143.535 41.792 143.231 41.264C142.943 40.72 142.543 40.296 142.031 39.992C141.535 39.688 140.959 39.536 140.303 39.536C139.647 39.536 139.055 39.688 138.527 39.992C137.999 40.296 137.583 40.72 137.279 41.264C136.991 41.792 136.847 42.392 136.847 43.064C136.847 43.736 136.991 44.336 137.279 44.864C137.583 45.392 137.991 45.808 138.503 46.112C139.031 46.416 139.631 46.568 140.303 46.568ZM149.287 50V36.944H152.239V39.848L151.999 39.416C152.303 38.44 152.775 37.76 153.415 37.376C154.071 36.992 154.855 36.8 155.767 36.8H156.535V39.584H155.407C154.511 39.584 153.791 39.864 153.247 40.424C152.703 40.968 152.431 41.736 152.431 42.728V50H149.287ZM161.744 50.288C160.832 50.288 160.04 50.136 159.368 49.832C158.696 49.528 158.176 49.096 157.808 48.536C157.44 47.96 157.256 47.296 157.256 46.544C157.256 45.824 157.416 45.184 157.736 44.624C158.056 44.048 158.552 43.568 159.224 43.184C159.896 42.8 160.744 42.528 161.768 42.368L166.04 41.672V44.072L162.368 44.696C161.744 44.808 161.28 45.008 160.976 45.296C160.672 45.584 160.52 45.96 160.52 46.424C160.52 46.872 160.688 47.232 161.024 47.504C161.376 47.76 161.808 47.888 162.32 47.888C162.976 47.888 163.552 47.752 164.048 47.48C164.56 47.192 164.952 46.8 165.224 46.304C165.512 45.808 165.656 45.264 165.656 44.672V41.312C165.656 40.752 165.432 40.288 164.984 39.92C164.552 39.536 163.976 39.344 163.256 39.344C162.584 39.344 161.984 39.528 161.456 39.896C160.944 40.248 160.568 40.72 160.328 41.312L157.76 40.064C158.016 39.376 158.416 38.784 158.96 38.288C159.52 37.776 160.176 37.376 160.928 37.088C161.68 36.8 162.496 36.656 163.376 36.656C164.448 36.656 165.392 36.856 166.208 37.256C167.024 37.64 167.656 38.184 168.104 38.888C168.568 39.576 168.8 40.384 168.8 41.312V50H165.824V47.768L166.496 47.72C166.16 48.28 165.76 48.752 165.296 49.136C164.832 49.504 164.304 49.792 163.712 50C163.12 50.192 162.464 50.288 161.744 50.288ZM171.226 50V36.944H174.178V39.968L173.842 39.464C174.082 38.52 174.562 37.816 175.282 37.352C176.002 36.888 176.85 36.656 177.826 36.656C178.898 36.656 179.842 36.936 180.658 37.496C181.474 38.056 182.002 38.792 182.242 39.704L181.354 39.776C181.754 38.736 182.354 37.96 183.154 37.448C183.954 36.92 184.874 36.656 185.914 36.656C186.842 36.656 187.666 36.864 188.386 37.28C189.122 37.696 189.698 38.28 190.114 39.032C190.53 39.768 190.738 40.624 190.738 41.6V50H187.594V42.344C187.594 41.768 187.49 41.272 187.282 40.856C187.074 40.44 186.786 40.12 186.418 39.896C186.05 39.656 185.602 39.536 185.074 39.536C184.578 39.536 184.138 39.656 183.754 39.896C183.37 40.12 183.074 40.44 182.866 40.856C182.658 41.272 182.554 41.768 182.554 42.344V50H179.41V42.344C179.41 41.768 179.306 41.272 179.098 40.856C178.89 40.44 178.594 40.12 178.21 39.896C177.842 39.656 177.402 39.536 176.89 39.536C176.394 39.536 175.954 39.656 175.57 39.896C175.186 40.12 174.89 40.44 174.682 40.856C174.474 41.272 174.37 41.768 174.37 42.344V50H171.226Z" fill="white"/>
<rect width="212" height="82" rx="9" fill="#007AB9"/>
<path d="M93.728 50V32.12H96.992V47.12H104.648V50H93.728ZM106.015 50V36.944H109.159V50H106.015ZM106.015 35.48V32.12H109.159V35.48H106.015ZM111.582 50V36.944H114.534V39.512L114.294 39.056C114.598 38.272 115.094 37.68 115.782 37.28C116.486 36.864 117.302 36.656 118.23 36.656C119.19 36.656 120.038 36.864 120.774 37.28C121.526 37.696 122.11 38.28 122.526 39.032C122.942 39.768 123.15 40.624 123.15 41.6V50H120.006V42.344C120.006 41.768 119.894 41.272 119.67 40.856C119.446 40.44 119.134 40.12 118.734 39.896C118.35 39.656 117.894 39.536 117.366 39.536C116.854 39.536 116.398 39.656 115.998 39.896C115.598 40.12 115.286 40.44 115.062 40.856C114.838 41.272 114.726 41.768 114.726 42.344V50H111.582ZM125.329 50V31.832H128.473V43.736L127.273 43.376L133.417 36.944H137.329L132.505 42.2L137.425 50H133.825L129.553 43.232L131.425 42.848L127.489 47.072L128.473 45.152V50H125.329ZM144.658 50.288C143.314 50.288 142.138 49.984 141.13 49.376C140.122 48.768 139.338 47.944 138.778 46.904C138.218 45.864 137.938 44.712 137.938 43.448C137.938 42.136 138.218 40.976 138.778 39.968C139.354 38.944 140.13 38.136 141.106 37.544C142.098 36.952 143.202 36.656 144.418 36.656C145.442 36.656 146.338 36.824 147.106 37.16C147.89 37.496 148.554 37.96 149.098 38.552C149.642 39.144 150.058 39.824 150.346 40.592C150.634 41.344 150.778 42.16 150.778 43.04C150.778 43.264 150.762 43.496 150.73 43.736C150.714 43.976 150.674 44.184 150.61 44.36H140.53V41.96H148.834L147.346 43.088C147.49 42.352 147.45 41.696 147.226 41.12C147.018 40.544 146.666 40.088 146.17 39.752C145.69 39.416 145.106 39.248 144.418 39.248C143.762 39.248 143.178 39.416 142.666 39.752C142.154 40.072 141.762 40.552 141.49 41.192C141.234 41.816 141.138 42.576 141.202 43.472C141.138 44.272 141.242 44.984 141.514 45.608C141.802 46.216 142.218 46.688 142.762 47.024C143.322 47.36 143.962 47.528 144.682 47.528C145.402 47.528 146.01 47.376 146.506 47.072C147.018 46.768 147.418 46.36 147.706 45.848L150.25 47.096C149.994 47.72 149.594 48.272 149.05 48.752C148.506 49.232 147.858 49.608 147.106 49.88C146.37 50.152 145.554 50.288 144.658 50.288ZM158.753 50.288C157.489 50.288 156.361 49.992 155.369 49.4C154.377 48.792 153.593 47.968 153.017 46.928C152.441 45.888 152.153 44.736 152.153 43.472C152.153 42.192 152.441 41.04 153.017 40.016C153.593 38.992 154.377 38.176 155.369 37.568C156.377 36.96 157.497 36.656 158.729 36.656C159.721 36.656 160.601 36.856 161.369 37.256C162.153 37.64 162.769 38.184 163.217 38.888L162.737 39.536V31.832H165.881V50H162.905V47.48L163.241 48.104C162.793 48.808 162.169 49.352 161.369 49.736C160.569 50.104 159.697 50.288 158.753 50.288ZM159.089 47.408C159.809 47.408 160.441 47.24 160.985 46.904C161.529 46.568 161.953 46.104 162.257 45.512C162.577 44.92 162.737 44.24 162.737 43.472C162.737 42.72 162.577 42.048 162.257 41.456C161.953 40.848 161.529 40.376 160.985 40.04C160.441 39.704 159.809 39.536 159.089 39.536C158.385 39.536 157.753 39.712 157.193 40.064C156.633 40.4 156.193 40.864 155.873 41.456C155.569 42.032 155.417 42.704 155.417 43.472C155.417 44.24 155.569 44.92 155.873 45.512C156.193 46.104 156.633 46.568 157.193 46.904C157.753 47.24 158.385 47.408 159.089 47.408ZM168.59 50V32.12H171.854V50H168.59ZM174.549 50V36.944H177.501V39.512L177.261 39.056C177.565 38.272 178.061 37.68 178.749 37.28C179.453 36.864 180.269 36.656 181.197 36.656C182.157 36.656 183.005 36.864 183.741 37.28C184.493 37.696 185.077 38.28 185.493 39.032C185.909 39.768 186.117 40.624 186.117 41.6V50H182.973V42.344C182.973 41.768 182.861 41.272 182.637 40.856C182.413 40.44 182.101 40.12 181.701 39.896C181.317 39.656 180.861 39.536 180.333 39.536C179.821 39.536 179.365 39.656 178.965 39.896C178.565 40.12 178.253 40.44 178.029 40.856C177.805 41.272 177.693 41.768 177.693 42.344V50H174.549Z" fill="white"/>
<path d="M82.5189 42.3526V62.1419H71.0456V43.6788C71.0456 39.0429 69.389 35.877 65.2349 35.877C62.0647 35.877 60.1814 38.0085 59.3497 40.0723C59.0477 40.8098 58.9698 41.834 58.9698 42.8685V62.1411H47.4956C47.4956 62.1411 47.6496 30.8707 47.4956 27.6338H58.9707V32.5238C58.9476 32.5623 58.9151 32.5999 58.8945 32.6367H58.9707V32.5238C60.4955 30.1776 63.2147 26.8235 69.3112 26.8235C76.8597 26.8235 82.5189 31.7554 82.5189 42.3526ZM35.4926 11C31.5678 11 29 13.5763 29 16.9613C29 20.2743 31.4933 22.9251 35.342 22.9251H35.4165C39.4183 22.9251 41.9066 20.2743 41.9066 16.9613C41.8304 13.5763 39.4183 11 35.4926 11ZM29.6819 62.1419H41.1519V27.6338H29.6819V62.1419Z" fill="white"/>
</svg>
