<svg width="83" height="83" viewBox="0 0 83 83" fill="none" xmlns="http://www.w3.org/2000/svg">
<circle cx="41.5" cy="41.332" r="41" fill="#1C3752"/>
<path d="M42.0772 54.0673L41.2908 52.4961L40.5044 54.0673L38.7656 54.3304L40.0179 55.5651L39.7298 57.298L41.2908 56.4881L42.8518 57.298L42.5637 55.5651L43.816 54.3304L42.0772 54.0673Z" fill="white"/>
<path d="M41.296 41.6055C33.8147 41.6055 27.75 47.6701 27.75 55.1514C27.75 62.6327 33.8147 68.6974 41.296 68.6974C48.7773 68.6974 54.8419 62.6327 54.8419 55.1514C54.8419 47.6701 48.7773 41.6055 41.296 41.6055ZM46.8137 62.746L41.296 59.8814L35.7782 62.7461L36.7983 56.6125L32.3683 52.25L38.5165 51.3255L41.296 45.7651L44.0754 51.3255L50.2237 52.25L45.7936 56.6125L46.8137 62.746Z" fill="white"/>
<path d="M40.7361 38.6327L30.2592 17.332L19.5 22.7116L29.658 43.4019C32.5262 40.563 36.426 38.7782 40.7361 38.6327Z" fill="white"/>
<path d="M52.9375 43.4019L63.0954 22.7116L52.3362 17.332L41.8594 38.6327C46.1694 38.7782 50.0692 40.563 52.9375 43.4019Z" fill="white"/>
</svg>
