<svg width="83" height="82" viewBox="0 0 83 82" fill="none" xmlns="http://www.w3.org/2000/svg">
<circle cx="41.5" cy="41" r="41" fill="#1C3752"/>
<path d="M56.6426 45.4947C56.2191 45.4969 55.8008 45.5881 55.4148 45.7624C55.0288 45.9367 54.6838 46.1902 54.4022 46.5065L51.6775 45.538C52.1185 44.4249 52.3819 43.2494 52.458 42.0545L55.1538 42.199C55.3345 43.3915 55.8693 44.0853 56.6426 44.0853C57.3768 44.0853 58.0808 43.7937 58.5999 43.2746C59.119 42.7555 59.4107 42.0514 59.4107 41.3173C59.4107 40.5832 59.119 39.8791 58.5999 39.36C58.0808 38.8409 57.3768 38.5492 56.6426 38.5492C56.478 38.5513 56.3155 38.587 56.1651 38.6541C56.0147 38.7213 55.8796 38.8184 55.7681 38.9395C55.3551 39.4747 55.1246 40.1283 55.1104 40.8042L52.4652 40.6596C52.4013 39.5747 52.1848 38.5041 51.822 37.4796L54.7129 35.9908C55.2474 36.5584 55.9631 36.9218 56.7367 37.0182C57.5103 37.1147 58.2934 36.9383 58.9508 36.5193C59.6083 36.1003 60.099 35.4651 60.3383 34.7231C60.5776 33.9812 60.5506 33.179 60.2618 32.4548C59.9731 31.7306 59.4407 31.1299 58.7565 30.7562C58.0723 30.3824 57.2792 30.2591 56.5138 30.4075C55.7485 30.5558 55.0588 30.9666 54.5639 31.5689C54.0689 32.1712 53.7995 32.9274 53.8023 33.707C53.8036 34.077 53.8696 34.4439 53.9974 34.7911L51.2655 36.1932C50.8159 35.3024 50.2523 34.4739 49.5888 33.7286L50.6946 32.6084C50.9106 32.6842 51.1378 32.7233 51.3667 32.7241C51.8445 32.727 52.3095 32.5705 52.6882 32.2792C53.0669 31.9879 53.3376 31.5786 53.4573 31.1161C53.577 30.6536 53.5388 30.1643 53.349 29.7259C53.1591 29.2875 52.8284 28.925 52.4091 28.6959C51.9899 28.4667 51.5062 28.3841 51.0347 28.461C50.5632 28.5379 50.1308 28.77 49.8061 29.1205C49.4815 29.471 49.2831 29.9198 49.2424 30.3959C49.2017 30.8719 49.3211 31.3479 49.5816 31.7484L48.5987 32.7457C47.8329 32.0726 46.9795 31.5062 46.0619 31.0618L47.1532 27.9035C47.3249 27.935 47.499 27.9519 47.6736 27.954C48.3795 27.959 49.0642 27.713 49.6056 27.2599C50.1469 26.8067 50.5096 26.176 50.6289 25.4802C50.7482 24.7844 50.6163 24.0688 50.2569 23.4612C49.8974 22.8537 49.3338 22.3936 48.6665 22.1631C47.9992 21.9326 47.2718 21.9468 46.614 22.2031C45.9562 22.4593 45.4109 22.941 45.0753 23.5621C44.7398 24.1832 44.6359 24.9033 44.7822 25.594C44.9285 26.2846 45.3154 26.9008 45.874 27.3325L44.7754 30.527C43.8074 30.1934 42.7982 29.994 41.7761 29.9343V26.5809C42.8313 26.4363 43.4745 25.9521 43.4745 25.2294C43.4718 24.5957 43.2182 23.9889 42.7692 23.5418C42.3202 23.0947 41.7123 22.8437 41.0787 22.8437C40.445 22.8437 39.8372 23.0947 39.3882 23.5418C38.9392 23.9889 38.6856 24.5957 38.6829 25.2294C38.6829 25.9521 39.3188 26.4363 40.3813 26.5809V29.9343C38.6284 30.0375 36.9235 30.5472 35.4017 31.4231L34.2814 29.7031C34.8159 29.1158 35.1122 28.3505 35.1126 27.5565C35.1126 26.9119 34.9214 26.2817 34.5633 25.7457C34.2051 25.2096 33.696 24.7919 33.1004 24.5452C32.5048 24.2985 31.8495 24.2339 31.2172 24.3597C30.5849 24.4854 30.0041 24.7959 29.5483 25.2517C29.0924 25.7076 28.782 26.2884 28.6562 26.9207C28.5304 27.5529 28.595 28.2083 28.8417 28.8039C29.0884 29.3995 29.5062 29.9086 30.0422 30.2667C30.5782 30.6249 31.2084 30.8161 31.8531 30.8161C32.3042 30.8162 32.7502 30.7201 33.1612 30.5342L34.2381 32.1965C32.9168 33.179 31.8244 34.4366 31.0364 35.8824L27.6323 33.5191C27.7826 33.2105 27.8617 32.8721 27.8636 32.5289C27.8709 31.999 27.7023 31.4817 27.3843 31.0578C27.0662 30.6339 26.6167 30.3274 26.1059 30.1863C25.5951 30.0451 25.0519 30.0772 24.5613 30.2775C24.0707 30.4779 23.6604 30.8352 23.3945 31.2936C23.1286 31.752 23.0221 32.2856 23.0918 32.8109C23.1614 33.3363 23.4032 33.8237 23.7793 34.197C24.1555 34.5703 24.6447 34.8084 25.1706 34.874C25.6964 34.9397 26.2292 34.8292 26.6856 34.5598L30.4438 37.1688C29.9268 38.4885 29.6597 39.8928 29.656 41.3101H26.8373C26.6928 39.5827 26.0062 38.4987 25.0088 38.4987C24.0782 38.4987 23.1858 38.8683 22.5277 39.5264C21.8697 40.1844 21.5 41.0769 21.5 42.0075C21.5 42.9381 21.8697 43.8306 22.5277 44.4886C23.1858 45.1467 24.0782 45.5163 25.0088 45.5163C26.0062 45.5163 26.6928 44.4323 26.8373 42.7049H29.7499C29.8767 43.7886 30.1616 44.8478 30.5955 45.8488L26.7144 48.1182C26.2063 47.8204 25.608 47.715 25.0287 47.8214C24.4494 47.9278 23.9276 48.2388 23.5585 48.6977C23.1893 49.1567 22.9973 49.733 23.0174 50.3216C23.0376 50.9102 23.2686 51.472 23.6684 51.9046C24.0681 52.3372 24.61 52.6117 25.1952 52.6782C25.7805 52.7446 26.3701 52.5986 26.8567 52.2667C27.3432 51.9348 27.6943 51.4391 27.846 50.87C27.9977 50.3008 27.9398 49.6961 27.6829 49.1661L31.2387 47.0847C31.7868 48.0218 32.4658 48.876 33.2551 49.6214L32.6191 50.2213C32.2395 50.0231 31.8187 49.9167 31.3905 49.9105C30.8573 49.9105 30.3361 50.0686 29.8928 50.3649C29.4495 50.6611 29.104 51.0821 28.8999 51.5747C28.6959 52.0673 28.6425 52.6093 28.7465 53.1322C28.8505 53.6552 29.1073 54.1355 29.4843 54.5125C29.8613 54.8895 30.3416 55.1463 30.8646 55.2503C31.3875 55.3543 31.9295 55.3009 32.4221 55.0969C32.9147 54.8928 33.3357 54.5473 33.6319 54.104C33.9282 53.6607 34.0863 53.1395 34.0863 52.6063C34.0868 52.0924 33.936 51.5896 33.6526 51.1609L34.3392 50.5176C34.8466 50.894 35.3858 51.2253 35.9509 51.5078L35.6835 52.0859C35.2053 52.1939 34.7803 52.4665 34.4827 52.8561C34.1851 53.2457 34.0339 53.7274 34.0554 54.2172C34.077 54.7069 34.2699 55.1735 34.6006 55.5354C34.9312 55.8974 35.3786 56.1316 35.8644 56.1972C36.3502 56.2627 36.8436 56.1555 37.2584 55.8942C37.6732 55.633 37.983 55.2342 38.1336 54.7677C38.2843 54.3012 38.2662 53.7966 38.0825 53.3421C37.8989 52.8876 37.5614 52.512 37.129 52.2811L37.2301 52.057C38.2334 52.4156 39.2819 52.6321 40.3451 52.7002L40.2006 55.5189C38.9936 55.6562 38.2636 56.1838 38.2636 56.9643C38.2636 57.6553 38.5381 58.318 39.0268 58.8066C39.5154 59.2953 40.1781 59.5698 40.8691 59.5698C41.5601 59.5698 42.2228 59.2953 42.7114 58.8066C43.2 58.318 43.4745 57.6553 43.4745 56.9643C43.4745 56.1982 42.7662 55.6779 41.5954 55.5261L41.74 52.7075C42.7896 52.6454 43.8257 52.4387 44.8188 52.0931L45.6355 54.0011C45.2157 54.3422 44.9302 54.8208 44.8294 55.3522C44.7286 55.8836 44.819 56.4335 45.0846 56.9047C45.3502 57.3758 45.7739 57.7378 46.2808 57.9266C46.7876 58.1154 47.3449 58.1188 47.854 57.9362C48.3632 57.7537 48.7913 57.3969 49.0627 56.9291C49.3341 56.4612 49.4312 55.9124 49.3369 55.3799C49.2426 54.8473 48.9629 54.3652 48.5474 54.019C48.1319 53.6727 47.6073 53.4847 47.0665 53.488C47.0231 53.488 46.9797 53.5025 46.9364 53.5025L46.1052 51.5583C46.9736 51.1291 47.7846 50.5925 48.5192 49.9611L49.2852 50.9946C48.921 51.4665 48.7273 52.0479 48.7358 52.644C48.7443 53.2401 48.9545 53.8158 49.332 54.2772C49.7095 54.7385 50.2322 55.0584 50.8148 55.1847C51.3975 55.311 52.0057 55.2363 52.5404 54.9726C53.0751 54.709 53.5047 54.272 53.7593 53.733C54.0138 53.1939 54.0783 52.5845 53.9422 52.0041C53.8061 51.4237 53.4774 50.9065 53.0097 50.5368C52.542 50.1671 51.9629 49.9667 51.3667 49.9683C51.0348 49.9678 50.7059 50.0316 50.3982 50.1562L49.5237 48.971C50.1261 48.3136 50.65 47.5884 51.0848 46.81L53.7373 47.7496C53.6655 47.9988 53.6266 48.2564 53.6216 48.5157C53.6216 49.1132 53.7988 49.6972 54.1307 50.194C54.4627 50.6908 54.9345 51.0781 55.4865 51.3067C56.0385 51.5354 56.646 51.5952 57.232 51.4786C57.818 51.3621 58.3563 51.0743 58.7788 50.6518C59.2013 50.2293 59.489 49.691 59.6056 49.105C59.7221 48.519 59.6623 47.9116 59.4337 47.3596C59.205 46.8076 58.8178 46.3357 58.321 46.0038C57.8242 45.6718 57.2401 45.4947 56.6426 45.4947ZM41.0751 37.5013C40.7702 37.5006 40.4723 37.4096 40.2192 37.2397C39.966 37.0699 39.7687 36.8289 39.6524 36.5471C39.5361 36.2653 39.5058 35.9553 39.5655 35.6564C39.6251 35.3574 39.772 35.0828 39.9876 34.8672C40.2032 34.6516 40.4778 34.5047 40.7768 34.4451C41.0757 34.3854 41.3857 34.4157 41.6675 34.532C41.9493 34.6483 42.1903 34.8456 42.3601 35.0988C42.53 35.3519 42.621 35.6498 42.6217 35.9547C42.6216 36.3648 42.4587 36.7582 42.1686 37.0482C41.8786 37.3383 41.4852 37.5012 41.0751 37.5013ZM41.0751 47.8146C41.3802 47.8139 41.6788 47.9037 41.9329 48.0727C42.1871 48.2416 42.3854 48.4821 42.5028 48.7638C42.6203 49.0455 42.6516 49.3557 42.5927 49.6551C42.5339 49.9546 42.3876 50.2299 42.1723 50.4462C41.957 50.6625 41.6824 50.8101 41.3832 50.8703C41.0841 50.9305 40.7737 50.9007 40.4915 50.7846C40.2093 50.6685 39.9678 50.4713 39.7977 50.2179C39.6276 49.9646 39.5364 49.6664 39.5356 49.3613C39.5361 48.9524 39.6982 48.5604 39.9866 48.2707C40.275 47.9809 40.6663 47.817 41.0751 47.8146ZM42.8457 43.9986C42.8465 43.6509 42.9502 43.3111 43.1438 43.0223C43.3375 42.7334 43.6124 42.5084 43.9338 42.3757C44.2552 42.2429 44.6087 42.2084 44.9498 42.2764C45.2908 42.3444 45.6041 42.5119 45.85 42.7578C46.0959 43.0037 46.2634 43.317 46.3314 43.658C46.3994 43.9991 46.3649 44.3526 46.2321 44.674C46.0994 44.9954 45.8744 45.2703 45.5855 45.464C45.2967 45.6576 44.9569 45.7614 44.6092 45.7621C44.1417 45.7614 43.6935 45.5754 43.3629 45.2449C43.0324 44.9143 42.8464 44.4661 42.8457 43.9986ZM43.0553 34.1912C43.056 33.8449 43.1593 33.5065 43.3522 33.2189C43.5451 32.9312 43.8188 32.7071 44.1389 32.5749C44.459 32.4427 44.8111 32.4083 45.1507 32.476C45.4904 32.5438 45.8023 32.7106 46.0472 32.9555C46.2921 33.2004 46.459 33.5124 46.5267 33.852C46.5944 34.1916 46.56 34.5437 46.4278 34.8638C46.2956 35.1839 46.0716 35.4577 45.7839 35.6505C45.4962 35.8434 45.1579 35.9467 44.8116 35.9474C44.3458 35.9473 43.8992 35.7623 43.5698 35.4329C43.2405 35.1036 43.0554 34.6569 43.0553 34.1912ZM36.8688 37.9205C37.3422 37.919 37.8054 38.0581 38.1998 38.3201C38.5941 38.5821 38.9019 38.9552 39.0841 39.3922C39.2662 39.8292 39.3146 40.3104 39.2231 40.775C39.1317 41.2395 38.9044 41.6664 38.5701 42.0017C38.2358 42.337 37.8096 42.5655 37.3454 42.6584C36.8811 42.7513 36.3998 42.7044 35.9622 42.5235C35.5247 42.3427 35.1506 42.0361 34.8874 41.6425C34.6243 41.2489 34.4838 40.7861 34.4838 40.3127C34.4845 39.6797 34.7358 39.0728 35.1827 38.6245C35.6296 38.1763 36.2358 37.9231 36.8688 37.9205ZM36.1533 43.8685C36.5649 43.8685 36.9674 43.9906 37.3097 44.2193C37.652 44.448 37.9187 44.7731 38.0763 45.1534C38.2338 45.5338 38.275 45.9523 38.1947 46.3561C38.1144 46.7598 37.9162 47.1307 37.6251 47.4218C37.334 47.7129 36.9631 47.9111 36.5593 47.9914C36.1556 48.0718 35.7371 48.0305 35.3567 47.873C34.9764 47.7155 34.6513 47.4487 34.4226 47.1064C34.1939 46.7641 34.0718 46.3617 34.0718 45.95C34.0719 45.398 34.2913 44.8686 34.6816 44.4783C35.0719 44.088 35.6013 43.8687 36.1533 43.8685ZM46.4377 40.0959C46.0553 40.0952 45.6818 39.9811 45.3642 39.7681C45.0467 39.555 44.7995 39.2526 44.6538 38.8991C44.5081 38.5456 44.4706 38.1568 44.5459 37.7819C44.6212 37.407 44.8059 37.0629 45.0768 36.793C45.3477 36.5231 45.6925 36.3396 46.0677 36.2657C46.4429 36.1918 46.8315 36.2309 47.1845 36.3778C47.5375 36.5248 47.839 36.7732 48.0508 37.0915C48.2626 37.4098 48.3753 37.7838 48.3746 38.1662C48.3735 38.6789 48.1688 39.1702 47.8056 39.532C47.4424 39.8939 46.9504 40.0967 46.4377 40.0959Z" fill="white"/>
<path d="M41.226 49.3624C41.2265 49.3427 41.223 49.3231 41.2157 49.3047C41.2085 49.2863 41.1976 49.2696 41.1838 49.2555C41.17 49.2414 41.1535 49.2302 41.1354 49.2225C41.1172 49.2149 41.0976 49.2109 41.0779 49.2109C41.0581 49.2109 41.0386 49.2149 41.0204 49.2225C41.0022 49.2302 40.9857 49.2414 40.9719 49.2555C40.9581 49.2696 40.9473 49.2863 40.94 49.3047C40.9328 49.3231 40.9293 49.3427 40.9297 49.3624C40.9297 49.5214 41.226 49.5214 41.226 49.3624Z" fill="white"/>
<path d="M41.0742 35.8048C41.0359 35.8049 40.9992 35.8202 40.9721 35.8472C40.9451 35.8743 40.9298 35.911 40.9297 35.9493C40.9297 36.1156 41.226 36.1156 41.226 35.9493C41.2257 35.9298 41.2216 35.9105 41.2138 35.8926C41.2059 35.8748 41.1946 35.8586 41.1805 35.8451C41.1664 35.8317 41.1497 35.8212 41.1314 35.8142C41.1132 35.8073 41.0937 35.8041 41.0742 35.8048Z" fill="white"/>
<path d="M36.8646 41.3072C37.4154 41.3072 37.8619 40.8607 37.8619 40.3099C37.8619 39.759 37.4154 39.3125 36.8646 39.3125C36.3137 39.3125 35.8672 39.759 35.8672 40.3099C35.8672 40.8607 36.3137 41.3072 36.8646 41.3072Z" fill="white"/>
<path d="M45.1608 34.1901C45.1601 34.1193 45.1384 34.0504 45.0985 33.9919C45.0586 33.9335 45.0023 33.8882 44.9366 33.8618C44.871 33.8354 44.799 33.829 44.7297 33.8435C44.6605 33.858 44.5971 33.8928 44.5476 33.9433C44.498 33.9938 44.4646 34.0579 44.4515 34.1274C44.4384 34.197 44.4462 34.2688 44.4739 34.3339C44.5017 34.399 44.5481 34.4544 44.6073 34.4931C44.6665 34.5318 44.7359 34.5521 44.8067 34.5514C44.8538 34.5514 44.9004 34.5419 44.9438 34.5236C44.9872 34.5054 45.0265 34.4786 45.0595 34.445C45.0925 34.4114 45.1184 34.3715 45.1358 34.3277C45.1532 34.2839 45.1617 34.2371 45.1608 34.1901Z" fill="white"/>
<path d="M36.1475 46.631C36.2833 46.631 36.4161 46.5907 36.529 46.5153C36.6419 46.4398 36.7299 46.3326 36.7819 46.2072C36.8338 46.0817 36.8474 45.9436 36.8209 45.8105C36.7944 45.6773 36.729 45.5549 36.633 45.4589C36.537 45.3629 36.4147 45.2975 36.2815 45.271C36.1483 45.2445 36.0102 45.2581 35.8848 45.3101C35.7593 45.362 35.6521 45.45 35.5766 45.563C35.5012 45.6759 35.4609 45.8086 35.4609 45.9444C35.4621 46.1261 35.5348 46.3001 35.6633 46.4286C35.7918 46.5572 35.9658 46.6299 36.1475 46.631Z" fill="white"/>
<path d="M46.4332 37.625C46.3271 37.6257 46.2235 37.6578 46.1355 37.7172C46.0475 37.7767 45.979 37.8608 45.9387 37.959C45.8984 38.0573 45.8881 38.1652 45.909 38.2694C45.9299 38.3735 45.9811 38.4691 46.0561 38.5442C46.1312 38.6192 46.2268 38.6704 46.3309 38.6913C46.435 38.7122 46.543 38.7019 46.6412 38.6616C46.7395 38.6213 46.8236 38.5528 46.883 38.4648C46.9425 38.3768 46.9746 38.2732 46.9753 38.167C46.9754 38.0958 46.9614 38.0253 46.9342 37.9595C46.907 37.8937 46.8671 37.8339 46.8167 37.7835C46.7664 37.7332 46.7066 37.6933 46.6408 37.6661C46.575 37.6389 46.5045 37.6249 46.4332 37.625Z" fill="white"/>
<path d="M44.9137 45.0263C44.996 44.9852 45.0693 44.9282 45.1295 44.8587C45.1897 44.7892 45.2355 44.7084 45.2644 44.6211C45.2933 44.5338 45.3046 44.4417 45.2978 44.3499C45.2909 44.2582 45.266 44.1688 45.2245 44.0867L44.7114 43.0749C44.6706 42.9925 44.6138 42.919 44.5445 42.8586C44.4751 42.7982 44.3944 42.7522 44.3072 42.7232C44.2199 42.6941 44.1278 42.6826 44.036 42.6894C43.9443 42.6961 43.8549 42.721 43.7728 42.7625C43.6907 42.804 43.6177 42.8614 43.5579 42.9312C43.4981 43.0011 43.4528 43.0821 43.4244 43.1696C43.3961 43.2572 43.3854 43.3494 43.393 43.4411C43.4005 43.5327 43.4261 43.622 43.4683 43.7037L43.9814 44.7155C44.0645 44.8798 44.209 45.0046 44.3836 45.0628C44.5582 45.121 44.7487 45.1079 44.9137 45.0263Z" fill="white"/>
</svg>
