<svg width="83" height="82" viewBox="0 0 83 82" fill="none" xmlns="http://www.w3.org/2000/svg">
<circle cx="41.5" cy="41" r="41" fill="#1C3752"/>
<path fill-rule="evenodd" clip-rule="evenodd" d="M33.5665 36.7683C33.8468 36.7863 34.1286 36.7954 34.412 36.7955C38.5942 36.7955 42.9534 34.8015 46.5359 31.2304L47.2461 31.7131C47.3055 31.7539 47.3753 31.777 47.4474 31.7797C47.5195 31.7823 47.5908 31.7645 47.6531 31.7281C47.7154 31.6918 47.766 31.6385 47.7992 31.5744C47.8323 31.5104 47.8465 31.4383 47.8402 31.3664L47.524 27.6169C47.5191 27.5604 47.5016 27.5057 47.4729 27.4568C47.4442 27.4079 47.405 27.366 47.3582 27.3341C47.3113 27.3023 47.2579 27.2812 47.2019 27.2725C47.1459 27.2638 47.0886 27.2676 47.0343 27.2838L43.4313 28.3684C43.3623 28.3889 43.3005 28.4287 43.2531 28.4831C43.2058 28.5374 43.1749 28.6041 43.164 28.6753C43.1531 28.7466 43.1627 28.8194 43.1916 28.8854C43.2205 28.9514 43.2676 29.0079 43.3274 29.0481L43.9951 29.502C41.4646 32.9308 37.7175 35.2608 33.523 36.0134C33.4314 36.03 33.3491 36.0795 33.2916 36.1526C33.234 36.2256 33.2052 36.3173 33.2105 36.4101C33.2159 36.503 33.255 36.5907 33.3206 36.6567C33.3862 36.7227 33.4736 36.7624 33.5665 36.7683ZM50.9023 44.5336C51.0034 44.5336 51.1002 44.5738 51.1717 44.6452C51.2431 44.7166 51.2832 44.8135 51.2832 44.9145C51.2832 45.0155 51.2431 45.1124 51.1717 45.1838C51.1002 45.2552 51.0034 45.2954 50.9023 45.2954H31.0977C30.9966 45.2954 30.8998 45.2552 30.8283 45.1838C30.7569 45.1124 30.7168 45.0155 30.7168 44.9145C30.7168 44.8135 30.7569 44.7166 30.8283 44.6452C30.8998 44.5738 30.9966 44.5336 31.0977 44.5336H32.5397V40.9584C32.54 40.8052 32.601 40.6584 32.7093 40.55C32.8176 40.4417 32.9645 40.3807 33.1177 40.3805H35.755C35.9082 40.3805 36.0553 40.4414 36.1637 40.5497C36.2721 40.6581 36.3329 40.8052 36.3329 40.9584V44.5339H36.9158V38.917C36.9161 38.7638 36.9771 38.6168 37.0856 38.5085C37.194 38.4002 37.341 38.3392 37.4943 38.3391H40.131C40.2842 38.3394 40.431 38.4003 40.5394 38.5087C40.6477 38.617 40.7087 38.7638 40.7089 38.917V44.5339H41.2912V36.8756C41.2915 36.7224 41.3525 36.5755 41.4608 36.4671C41.5691 36.3587 41.716 36.2976 41.8692 36.2972H44.5062C44.6595 36.2974 44.8064 36.3585 44.9148 36.4669C45.0231 36.5753 45.0841 36.7223 45.0842 36.8756V44.5336H45.667V34.8342C45.6671 34.6809 45.728 34.5339 45.8364 34.4255C45.9447 34.3171 46.0917 34.256 46.245 34.2558H48.8822C49.0354 34.2562 49.1823 34.3173 49.2906 34.4257C49.3989 34.5341 49.4599 34.681 49.4602 34.8342V44.5336H50.9023ZM59.7383 47.8014H22.2617V27.1233C22.2625 26.4973 22.5116 25.8971 22.9542 25.4545C23.3969 25.0118 23.997 24.7628 24.623 24.7619H57.377C58.003 24.7628 58.6031 25.0118 59.0458 25.4545C59.4884 25.8971 59.7375 26.4973 59.7383 27.1233V47.8017V47.8014ZM42.5873 55.2649H39.4124V52.9297H42.5873V55.2649ZM57.377 24C58.2049 24.0011 58.9986 24.3305 59.5841 24.9159C60.1695 25.5014 60.4989 26.2951 60.5 27.123V49.8063C60.499 50.6342 60.1697 51.428 59.5842 52.0135C58.9987 52.599 58.2049 52.9283 57.377 52.9293H43.3487V55.2645H45.418C45.8966 55.2652 46.3555 55.4557 46.6939 55.7942C47.0323 56.1327 47.2227 56.5916 47.2232 57.0702V58.4947C47.2232 58.5957 47.1831 58.6925 47.1117 58.764C47.0403 58.8354 46.9434 58.8755 46.8424 58.8755H35.1576C35.0566 58.8755 34.9597 58.8354 34.8883 58.764C34.8169 58.6925 34.7768 58.5957 34.7768 58.4947V57.0702C34.7773 56.5916 34.9676 56.1327 35.3061 55.7943C35.6445 55.4558 36.1034 55.2654 36.582 55.2649H38.6506V52.9297H24.623C23.7951 52.9287 23.0013 52.5994 22.4158 52.0139C21.8303 51.4284 21.501 50.6346 21.5 49.8066V27.1233C21.5011 26.2953 21.8305 25.5016 22.4159 24.9161C23.0014 24.3307 23.7951 24.0013 24.623 24.0002L57.377 24ZM42.4549 51.5044C42.7569 51.5044 43.0466 51.3845 43.2601 51.1709C43.4737 50.9573 43.5937 50.6677 43.5937 50.3657C43.5937 50.0637 43.4737 49.774 43.2601 49.5604C43.0466 49.3469 42.7569 49.2269 42.4549 49.2269H39.5451C39.3956 49.2269 39.2475 49.2564 39.1093 49.3136C38.9712 49.3708 38.8456 49.4547 38.7399 49.5604C38.6341 49.6662 38.5503 49.7917 38.493 49.9299C38.4358 50.068 38.4063 50.2161 38.4063 50.3657C38.4063 50.5152 38.4358 50.6633 38.493 50.8015C38.5503 50.9396 38.6341 51.0652 38.7399 51.1709C38.8456 51.2766 38.9712 51.3605 39.1093 51.4178C39.2475 51.475 39.3956 51.5044 39.5451 51.5044H42.4549ZM42.4549 50.7427C42.553 50.7399 42.6462 50.699 42.7147 50.6286C42.7831 50.5582 42.8214 50.4639 42.8214 50.3657C42.8214 50.2675 42.7831 50.1732 42.7147 50.1028C42.6462 50.0324 42.553 49.9914 42.4549 49.9886H39.5451C39.447 49.9914 39.3538 50.0324 39.2854 50.1028C39.2169 50.1732 39.1786 50.2675 39.1786 50.3657C39.1786 50.4639 39.2169 50.5582 39.2854 50.6286C39.3538 50.699 39.447 50.7399 39.5451 50.7427H42.4549Z" fill="white"/>
</svg>
