<svg width="83" height="82" viewBox="0 0 83 82" fill="none" xmlns="http://www.w3.org/2000/svg">
<circle cx="41.5" cy="41" r="41" fill="#1C3752"/>
<path d="M32.1758 19.398H31.7718C31.733 19.2721 31.6823 19.1515 31.6215 19.037L31.9077 18.7508C32.1475 18.5109 32.1475 18.1221 31.9077 17.8822C31.6678 17.6424 31.279 17.6424 31.039 17.8822L30.7528 18.1684C30.6384 18.1076 30.5178 18.057 30.392 18.0181V17.6142C30.392 17.275 30.117 17 29.7778 17C29.4386 17 29.1636 17.275 29.1636 17.6142V18.0181C29.0378 18.057 28.9171 18.1076 28.8027 18.1684L28.5165 17.8822C28.2765 17.6424 27.8877 17.6424 27.6478 17.8822C27.408 18.1221 27.408 18.5109 27.6478 18.7508L27.934 19.037C27.8732 19.1515 27.8225 19.2721 27.7837 19.398H27.3798C27.0406 19.398 26.7656 19.673 26.7656 20.0122C26.7656 20.3513 27.0406 20.6263 27.3798 20.6263H27.7837C27.8225 20.7522 27.8732 20.8728 27.934 20.9873L27.6478 21.2735C27.408 21.5134 27.408 21.9022 27.6478 22.1421C27.7678 22.262 27.9249 22.322 28.0821 22.322C28.2394 22.322 28.3965 22.262 28.5165 22.1421L28.8026 21.856C28.9171 21.9168 29.0378 21.9674 29.1636 22.0063V22.4102C29.1636 22.7493 29.4386 23.0243 29.7778 23.0243C30.117 23.0243 30.392 22.7493 30.392 22.4102V22.0063C30.5178 21.9674 30.6384 21.9168 30.7529 21.856L31.039 22.1421C31.159 22.262 31.3161 22.322 31.4734 22.322C31.6306 22.322 31.7877 22.262 31.9077 22.1421C32.1475 21.9022 32.1475 21.5134 31.9077 21.2735L31.6215 20.9873C31.6823 20.8728 31.733 20.7522 31.7718 20.6263H32.1758C32.515 20.6263 32.79 20.3513 32.79 20.0122C32.79 19.673 32.515 19.398 32.1758 19.398Z" fill="white"/>
<path d="M53.1445 22.5933H52.7406C52.7017 22.4675 52.6511 22.3468 52.5903 22.2323L52.8765 21.9461C53.1163 21.7062 53.1163 21.3174 52.8765 21.0775C52.6366 20.8378 52.2478 20.8378 52.0079 21.0775L51.7217 21.3637C51.6072 21.3029 51.4866 21.2522 51.3607 21.2134V20.8095C51.3607 20.4703 51.0857 20.1953 50.7465 20.1953C50.4074 20.1953 50.1324 20.4703 50.1324 20.8095V21.2134C50.0065 21.2522 49.8859 21.3029 49.7714 21.3637L49.4852 21.0775C49.2453 20.8378 48.8565 20.8378 48.6166 21.0775C48.3767 21.3174 48.3767 21.7062 48.6166 21.9461L48.9027 22.2323C48.8419 22.3468 48.7913 22.4674 48.7524 22.5933H48.3485C48.0094 22.5933 47.7344 22.8683 47.7344 23.2075C47.7344 23.5467 48.0094 23.8216 48.3485 23.8216H48.7524C48.7913 23.9475 48.8419 24.0681 48.9027 24.1826L48.6166 24.4687C48.3767 24.7086 48.3767 25.0975 48.6166 25.3374C48.7365 25.4572 48.8937 25.5172 49.0509 25.5172C49.2081 25.5172 49.3652 25.4572 49.4852 25.3374L49.7714 25.0512C49.8859 25.112 50.0065 25.1627 50.1324 25.2015V25.6055C50.1324 25.9446 50.4074 26.2196 50.7465 26.2196C51.0857 26.2196 51.3607 25.9446 51.3607 25.6055V25.2015C51.4866 25.1627 51.6072 25.112 51.7217 25.0512L52.0079 25.3374C52.1278 25.4572 52.285 25.5172 52.4422 25.5172C52.5994 25.5172 52.7565 25.4572 52.8765 25.3374C53.1163 25.0975 53.1163 24.7086 52.8765 24.4687L52.5903 24.1825C52.6511 24.0681 52.7017 23.9475 52.7406 23.8216H53.1445C53.4837 23.8216 53.7587 23.5467 53.7587 23.2075C53.7587 22.8683 53.4837 22.5933 53.1445 22.5933Z" fill="white"/>
<path d="M59.8867 51.6792H59.4828C59.4439 51.5534 59.3933 51.4328 59.3325 51.3183L59.6187 51.0321C59.8585 50.7922 59.8585 50.4034 59.6187 50.1634C59.3788 49.9237 58.99 49.9237 58.7501 50.1634L58.4639 50.4496C58.3494 50.3888 58.2287 50.3381 58.1029 50.2993V49.8954C58.1029 49.5562 57.8279 49.2812 57.4887 49.2812C57.1496 49.2812 56.8746 49.5562 56.8746 49.8954V50.2993C56.7487 50.3381 56.6281 50.3888 56.5136 50.4496L56.2274 50.1634C55.9875 49.9237 55.5987 49.9237 55.3588 50.1634C55.1189 50.4034 55.1189 50.7922 55.3588 51.0321L55.645 51.3183C55.5842 51.4328 55.5335 51.5534 55.4947 51.6792H55.0907C54.7516 51.6792 54.4766 51.9542 54.4766 52.2934C54.4766 52.6326 54.7516 52.9076 55.0907 52.9076H55.4947C55.5335 53.0334 55.5842 53.1541 55.645 53.2685L55.3588 53.5547C55.1189 53.7947 55.1189 54.1835 55.3588 54.4234C55.4787 54.5433 55.6359 54.6032 55.7931 54.6032C55.9503 54.6032 56.1074 54.5433 56.2274 54.4234L56.5136 54.1372C56.6281 54.1979 56.7487 54.2486 56.8746 54.2875V54.6914C56.8746 55.0306 57.1496 55.3056 57.4887 55.3056C57.8279 55.3056 58.1029 55.0306 58.1029 54.6914V54.2875C58.2287 54.2486 58.3494 54.1979 58.4638 54.1372L58.7501 54.4234C58.87 54.5433 59.0272 54.6032 59.1844 54.6032C59.3416 54.6032 59.4987 54.5433 59.6187 54.4234C59.8585 54.1835 59.8585 53.7947 59.6187 53.5547L59.3325 53.2685C59.3933 53.1541 59.4439 53.0334 59.4828 52.9076H59.8867C60.2259 52.9076 60.5009 52.6326 60.5009 52.2934C60.5009 51.9542 60.2259 51.6792 59.8867 51.6792Z" fill="white"/>
<path d="M26.9102 46.2964H26.5062C26.4674 46.1706 26.4167 46.05 26.3559 45.9355L26.6421 45.6493C26.882 45.4094 26.882 45.0205 26.6421 44.7806C26.4022 44.5409 26.0134 44.5409 25.7735 44.7806L25.4873 45.0668C25.3728 45.006 25.2522 44.9553 25.1263 44.9165V44.5126C25.1263 44.1734 24.8513 43.8984 24.5122 43.8984C24.173 43.8984 23.898 44.1734 23.898 44.5126V44.9165C23.7721 44.9553 23.6515 45.006 23.537 45.0668L23.2508 44.7806C23.0109 44.5409 22.6221 44.5409 22.3822 44.7806C22.1424 45.0205 22.1424 45.4094 22.3822 45.6493L22.6684 45.9355C22.6076 46.05 22.557 46.1706 22.5181 46.2964H22.1142C21.775 46.2964 21.5 46.5714 21.5 46.9106C21.5 47.2498 21.775 47.5248 22.1142 47.5248H22.5181C22.557 47.6506 22.6076 47.7712 22.6684 47.8857L22.3822 48.1719C22.1424 48.4118 22.1424 48.8007 22.3822 49.0406C22.5022 49.1604 22.6593 49.2204 22.8165 49.2204C22.9737 49.2204 23.1309 49.1604 23.2508 49.0406L23.5371 48.7544C23.6515 48.8151 23.7721 48.8658 23.898 48.9046V49.3086C23.898 49.6478 24.173 49.9228 24.5122 49.9228C24.8513 49.9228 25.1263 49.6478 25.1263 49.3086V48.9046C25.2522 48.8658 25.3728 48.8151 25.4873 48.7544L25.7735 49.0406C25.8935 49.1604 26.0506 49.2204 26.2078 49.2204C26.365 49.2204 26.5222 49.1604 26.6421 49.0406C26.882 48.8007 26.882 48.4118 26.6421 48.1719L26.3559 47.8857C26.4167 47.7712 26.4674 47.6506 26.5062 47.5248H26.9102C27.2493 47.5248 27.5243 47.2498 27.5243 46.9106C27.5243 46.5714 27.2493 46.2964 26.9102 46.2964Z" fill="white"/>
<path d="M37.2478 21.7969C36.3702 21.7969 35.6562 22.5109 35.6562 23.3885C35.6562 24.2662 36.3702 24.9801 37.2478 24.9801C38.1255 24.9801 38.8394 24.2662 38.8394 23.3885C38.8394 22.5109 38.1255 21.7969 37.2478 21.7969Z" fill="white"/>
<path d="M25.8806 40.5504C26.7583 40.5504 27.4723 39.8364 27.4723 38.9588C27.4723 38.0811 26.7583 37.3672 25.8806 37.3672C25.003 37.3672 24.2891 38.0811 24.2891 38.9588C24.2891 39.8364 25.003 40.5504 25.8806 40.5504Z" fill="white"/>
<path d="M31.7157 28.0174C32.0549 28.0174 32.3299 27.7424 32.3299 27.4032C32.3299 27.064 32.0549 26.7891 31.7157 26.7891C31.3765 26.7891 31.1016 27.064 31.1016 27.4032C31.1016 27.7424 31.3765 28.0174 31.7157 28.0174Z" fill="white"/>
<path d="M55.5517 43.2362C55.8909 43.2362 56.1658 42.9612 56.1658 42.622C56.1658 42.2828 55.8909 42.0078 55.5517 42.0078C55.2125 42.0078 54.9375 42.2828 54.9375 42.622C54.9375 42.9612 55.2125 43.2362 55.5517 43.2362Z" fill="white"/>
<path d="M44.7573 49.8434C44.7573 49.5042 45.0323 49.2292 45.3714 49.2292C45.7106 49.2292 45.9856 49.5042 45.9856 49.8434V50.7507H47.6122C47.5431 49.2229 47.4309 47.8207 47.2536 47.2848C47.2515 47.2786 47.2496 47.2724 47.2477 47.2661C47.2381 47.2364 46.9552 46.3856 45.8832 45.9148C45.2774 45.6487 44.4713 45.342 43.7699 45.0859C43.4522 45.6814 42.6351 46.7962 40.9702 46.7962C39.3053 46.7962 38.4882 45.6814 38.1705 45.0859C37.4691 45.342 36.663 45.6487 36.0572 45.9148C34.9852 46.3856 34.7022 47.2365 34.6907 47.2725C34.6888 47.2787 34.6888 47.2786 34.6867 47.2848C34.5094 47.8207 34.3972 49.2229 34.3281 50.7507H35.9548V49.8434C35.9548 49.5042 36.2298 49.2292 36.5689 49.2292C36.9081 49.2292 37.1831 49.5042 37.1831 49.8434V55.9965H37.2028H44.7573V49.8434Z" fill="white"/>
<path d="M37.8438 39.4387C37.8438 41.1629 39.2465 42.5656 40.9707 42.5656C42.6948 42.5656 44.0976 41.1629 44.0976 39.4387V37.9983C43.8055 38.0581 43.4539 38.1028 43.0676 38.103C42.2056 38.1006 41.0141 37.862 39.9359 36.8281C39.8301 36.9353 39.7079 37.047 39.5701 37.1554C39.0328 37.5778 38.4465 37.8011 37.8438 37.8178V39.4387Z" fill="white"/>
<path d="M35.9543 51.9766H34.2813C34.2402 53.3049 34.2266 54.5807 34.2266 55.3309V55.994H34.2541H35.9543V51.9766Z" fill="white"/>
<path d="M39.8757 35.2738C40.0751 35.2619 40.2691 35.3486 40.3936 35.5057C41.7024 37.1588 43.371 36.9384 44.0976 36.737V34.1515C44.0976 33.3615 43.4548 32.7188 42.6648 32.7188H40.1208C39.6447 32.7188 39.2573 33.1061 39.2573 33.5823C39.2573 33.9215 38.9823 34.1965 38.6431 34.1965C38.2023 34.1965 37.8438 34.555 37.8438 34.9958V36.5838C38.7828 36.5306 39.382 35.5763 39.3889 35.5651C39.4939 35.3944 39.6756 35.2857 39.8757 35.2738Z" fill="white"/>
<path d="M40.9755 45.566C41.8674 45.566 42.3637 45.034 42.6005 44.6655C42.5723 44.6557 42.545 44.6463 42.5197 44.6375C42.1171 44.498 41.8395 44.1313 41.8095 43.7109C41.5394 43.7635 41.2608 43.7919 40.9755 43.7919C40.6902 43.7919 40.4116 43.7635 40.1414 43.7109C40.1115 44.1314 39.8338 44.498 39.4312 44.6375C39.4062 44.6461 39.3793 44.6555 39.3516 44.6651C39.5897 45.0352 40.0859 45.566 40.9755 45.566Z" fill="white"/>
<path d="M56.0077 33.187L53.1671 31.6825C53.1658 31.6818 53.1646 31.6812 53.1634 31.6805L41.7207 25.6201C41.2705 25.3815 40.7302 25.3765 40.2756 25.6064C38.9237 26.2903 35.4314 28.062 32.208 29.738C30.8753 30.431 29.7444 31.0266 28.8282 31.5183C28.8263 31.5192 28.8245 31.5202 28.8227 31.5212C28.4705 31.7102 28.1491 31.8842 27.8618 32.0417C27.2558 32.3739 26.7861 32.6404 26.4658 32.834C25.9783 33.1286 25.6562 33.3232 25.6562 33.7297C25.6562 34.0689 25.9312 34.3439 26.2704 34.3439C26.4684 34.3439 26.6445 34.2502 26.7568 34.1048C26.9532 33.9567 27.5576 33.6068 28.5036 33.0901V54.4231C28.5036 55.2898 29.2087 55.9949 30.0755 55.9949H31.9841H32.9993V55.3318C32.9993 54.6304 33.0139 48.4374 33.5202 46.9C33.5735 46.7344 34.0256 45.4642 35.5638 44.7886C36.5992 44.3337 38.1741 43.7731 38.9114 43.5163V43.2733C37.5458 42.5374 36.6155 41.0939 36.6155 39.4369V37.132V34.9962C36.6155 34.0663 37.2446 33.2806 38.0997 33.0425C38.3384 32.15 39.1541 31.4908 40.1209 31.4908H42.6648C44.1322 31.4908 45.326 32.6846 45.326 34.152V37.1735V39.4369C45.326 41.0939 44.3957 42.5374 43.0301 43.2733V43.5163C43.7673 43.773 45.3423 44.3337 46.3778 44.7886C47.9164 45.4643 48.3683 46.735 48.4213 46.9002C48.9276 48.438 48.9422 54.6304 48.9422 55.3318V55.9949H48.9551H50.7393H51.9152C52.782 55.9949 53.4871 55.2898 53.4871 54.4231V33.2419L55.4329 34.2725C55.5245 34.321 55.6228 34.3441 55.7198 34.3441C55.94 34.3441 56.1528 34.2253 56.263 34.0172C56.4218 33.7174 56.3075 33.3457 56.0077 33.187Z" fill="white"/>
<path d="M47.712 55.3309C47.712 54.5807 47.6985 53.3049 47.6573 51.9766H45.9844V55.994H46.0041H47.712V55.3309Z" fill="white"/>
</svg>
