<svg width="83" height="82" viewBox="0 0 83 82" fill="none" xmlns="http://www.w3.org/2000/svg">
<circle cx="41.5" cy="41" r="41" fill="#1C3752"/>
<path d="M33.9453 32.9375H38.0942V33.7673H33.9453V32.9375Z" fill="white"/>
<path d="M31.0432 36.6682C32.1871 36.6682 33.1177 35.7376 33.1177 34.5938H28.9688C28.9688 35.7376 29.8994 36.6682 31.0432 36.6682Z" fill="white"/>
<path d="M38.9219 32.9375H43.0708V33.7673H38.9219V32.9375Z" fill="white"/>
<path d="M33.8816 27.125H30.524L29.1016 32.1037H33.1703L33.8816 27.125Z" fill="white"/>
<path d="M38.0932 27.125H34.719L34.0078 32.1037H38.0932V27.125Z" fill="white"/>
<path d="M36.0198 36.6682C37.1636 36.6682 38.0942 35.7376 38.0942 34.5938H33.9453C33.9453 35.7376 34.8759 36.6682 36.0198 36.6682Z" fill="white"/>
<path d="M28.9688 32.9375H33.1177V33.7673H28.9688V32.9375Z" fill="white"/>
<path d="M57.3896 21.7324C58.1903 21.7324 58.8418 21.0809 58.8418 20.2803C58.8418 19.4796 58.1903 18.8281 57.3896 18.8281C56.589 18.8281 55.9375 19.4796 55.9375 20.2803C55.9375 21.0809 56.589 21.7324 57.3896 21.7324Z" fill="white"/>
<path d="M24.4079 23.3939C24.8655 23.3939 25.2377 23.0217 25.2377 22.5642C25.2377 22.1066 24.8655 21.7344 24.4079 21.7344C23.9504 21.7344 23.5781 22.1066 23.5781 22.5642C23.5781 23.0217 23.9504 23.3939 24.4079 23.3939Z" fill="white"/>
<path d="M58.0083 34.5938H53.8594C53.8594 35.7376 54.79 36.6682 55.9338 36.6682C57.0777 36.6682 58.0083 35.7376 58.0083 34.5938Z" fill="white"/>
<path d="M38.9219 27.125H43.0708V32.1037H38.9219V27.125Z" fill="white"/>
<path d="M38.1485 48.655C38.9111 49.4177 39.9252 49.8377 41.0038 49.8378H41.0041C41.6193 49.8378 42.2193 49.6997 42.7647 49.4352L37.3686 44.0391C36.6316 45.5629 36.9259 47.4325 38.1485 48.655Z" fill="white"/>
<path d="M39.2344 42.1608L44.6304 47.5569C45.3674 46.0333 45.0731 44.1635 43.8505 42.941C42.5909 41.6814 40.7256 41.4379 39.2344 42.1608Z" fill="white"/>
<path d="M49.2974 48.6982H56.3506V37.466C55.1812 37.6344 54.0464 37.0822 53.4463 36.0859C52.9377 36.9302 52.0123 37.4961 50.9569 37.4961C49.9016 37.4961 48.9762 36.9302 48.4676 36.0859C47.959 36.9302 47.0335 37.4961 45.9782 37.4961C44.9229 37.4961 43.9974 36.9302 43.4889 36.0859C42.9803 36.9302 42.0548 37.4961 40.9995 37.4961C39.9442 37.4961 39.0187 36.9302 38.5101 36.0859C38.0016 36.9302 37.0761 37.4961 36.0208 37.4961C34.9655 37.4961 34.04 36.9302 33.5314 36.0859C33.0228 36.9302 32.0974 37.4961 31.0421 37.4961C29.9867 37.4961 29.0613 36.9302 28.5527 36.0859C28.0441 36.9302 27.1187 37.4961 26.0633 37.4961C25.9224 37.4961 25.784 37.4855 25.6484 37.466V48.6982H32.7016C32.9308 48.6982 33.1165 48.8839 33.1165 49.1131C33.1165 49.3423 32.9308 49.528 32.7016 49.528H25.6484V52.0174H37.6847C35.4623 50.8288 33.9463 48.4854 33.9463 45.794C33.9463 41.9048 37.1104 38.7408 40.9995 38.7408C44.8886 38.7408 48.0527 41.9048 48.0527 45.794C48.0527 48.4854 46.5367 50.8288 44.3143 52.0174H56.3506V49.528H49.2974C49.0682 49.528 48.8825 49.3423 48.8825 49.1131C48.8825 48.8839 49.0682 48.6982 49.2974 48.6982Z" fill="white"/>
<path d="M40.9968 39.5781C37.5653 39.5781 34.7734 42.3699 34.7734 45.8015C34.7734 49.2331 37.5653 52.0249 40.9968 52.0249C44.4284 52.0249 47.2202 49.2331 47.2202 45.8015C47.2202 42.3699 44.4284 39.5781 40.9968 39.5781ZM43.8483 49.5709C43.8356 49.6951 43.7675 49.807 43.6632 49.8754C42.871 50.3949 41.949 50.6695 40.997 50.6695C40.9968 50.6695 40.9968 50.6695 40.9967 50.6695C39.6963 50.6694 38.474 50.1631 37.5547 49.2437C35.9317 47.6208 35.666 45.0519 36.9231 43.1352C37.0671 42.9155 37.3773 42.8833 37.5633 43.0694L43.7291 49.2351C43.8173 49.3233 43.8612 49.4467 43.8483 49.5709ZM45.0707 48.4678C45.0023 48.5722 44.8904 48.6402 44.7662 48.653C44.752 48.6545 44.7379 48.6552 44.7237 48.6552C44.6143 48.6552 44.5086 48.6119 44.4304 48.5336L38.2648 42.3679C38.1765 42.2797 38.1326 42.1563 38.1454 42.0321C38.1581 41.9079 38.2263 41.796 38.3306 41.7275C39.1228 41.2081 40.0448 40.9335 40.997 40.9335C42.2973 40.9335 43.5196 41.4398 44.439 42.3593C46.062 43.9821 46.3276 46.5512 45.0707 48.4678Z" fill="white"/>
<path d="M45.9807 36.6682C47.1246 36.6682 48.0552 35.7376 48.0552 34.5938H43.9062C43.9062 35.7376 44.8369 36.6682 45.9807 36.6682Z" fill="white"/>
<path d="M28.2399 32.1037L29.6624 27.125C29.3054 27.125 28.9051 27.125 28.5182 27.125C27.6645 27.125 26.871 27.5854 26.4474 28.3266L24.2891 32.1037H28.2399Z" fill="white"/>
<path d="M40.9963 36.6682C42.1402 36.6682 43.0708 35.7376 43.0708 34.5938H38.9219C38.9219 35.7376 39.8525 36.6682 40.9963 36.6682Z" fill="white"/>
<path d="M23.9922 32.9375H28.1411V33.7673H23.9922V32.9375Z" fill="white"/>
<path d="M40.5841 26.2979V25.0115C39.6384 24.8187 38.9245 23.9805 38.9245 22.9787V20.9043C38.9245 20.6752 39.1102 20.4894 39.3394 20.4894C39.5686 20.4894 39.7543 20.6752 39.7543 20.9043V22.9787C39.7543 23.5194 40.1015 23.9794 40.5841 24.1508V22.1489C40.5841 21.9198 40.7698 21.734 40.999 21.734C41.2282 21.734 41.4139 21.9198 41.4139 22.1489V24.1508C41.8965 23.9794 42.2437 23.5194 42.2437 22.9787V20.9043C42.2437 20.6752 42.4294 20.4894 42.6586 20.4894C42.8878 20.4894 43.0735 20.6752 43.0735 20.9043V22.9787C43.0735 23.9805 42.3596 24.8187 41.4139 25.0115V26.2979H52.2011V25.883C52.2011 24.5103 51.0844 23.3936 49.7118 23.3936H46.7912C46.5733 23.3936 46.3926 23.2253 46.3774 23.008C46.1789 20.1998 43.8165 18 40.999 18C38.1816 18 35.8192 20.1998 35.6207 23.008C35.6054 23.2253 35.4247 23.3936 35.2069 23.3936H32.2862C30.9136 23.3936 29.7969 24.5103 29.7969 25.883V26.2979H40.5841Z" fill="white"/>
<path d="M26.0667 36.6682C27.2105 36.6682 28.1411 35.7376 28.1411 34.5938H23.9922C23.9922 35.7376 24.9228 36.6682 26.0667 36.6682Z" fill="white"/>
<path d="M57.7092 32.1037L55.5509 28.3266C55.1273 27.5854 54.3339 27.125 53.4803 27.125C53.0933 27.125 52.6932 27.125 52.3359 27.125L53.7584 32.1037H57.7092Z" fill="white"/>
<path d="M50.9573 36.6682C52.1011 36.6682 53.0317 35.7376 53.0317 34.5938H48.8828C48.8828 35.7376 49.8134 36.6682 50.9573 36.6682Z" fill="white"/>
<path d="M43.9062 27.125V32.1037H47.9916L47.2804 27.125H43.9062Z" fill="white"/>
<path d="M53.8594 32.9375H58.0083V33.7673H53.8594V32.9375Z" fill="white"/>
<path d="M48.8828 32.9375H53.0317V33.7673H48.8828V32.9375Z" fill="white"/>
<path d="M48.1172 27.125L48.8284 32.1037H52.8972L51.4747 27.125H48.1172Z" fill="white"/>
<path d="M43.9062 32.9375H48.0552V33.7673H43.9062V32.9375Z" fill="white"/>
<path d="M23.3645 28.3697C23.7082 28.3697 23.9869 28.091 23.9869 27.7473C23.9869 27.4036 23.7082 27.125 23.3645 27.125C23.0208 27.125 22.7422 27.4036 22.7422 27.7473C22.7422 28.091 23.0208 28.3697 23.3645 28.3697Z" fill="white"/>
<path d="M30.8333 19.2447C31.177 19.2447 31.4556 18.966 31.4556 18.6223C31.4556 18.2786 31.177 18 30.8333 18C30.4896 18 30.2109 18.2786 30.2109 18.6223C30.2109 18.966 30.4896 19.2447 30.8333 19.2447Z" fill="white"/>
<path d="M49.5052 19.6587C49.8489 19.6587 50.1275 19.3801 50.1275 19.0364C50.1275 18.6927 49.8489 18.4141 49.5052 18.4141C49.1614 18.4141 48.8828 18.6927 48.8828 19.0364C48.8828 19.3801 49.1614 19.6587 49.5052 19.6587Z" fill="white"/>
<path d="M57.802 25.8853C58.1457 25.8853 58.4244 25.6067 58.4244 25.263C58.4244 24.9193 58.1457 24.6406 57.802 24.6406C57.4583 24.6406 57.1797 24.9193 57.1797 25.263C57.1797 25.6067 57.4583 25.8853 57.802 25.8853Z" fill="white"/>
<path d="M59.052 40.6119C59.3957 40.6119 59.6744 40.3332 59.6744 39.9895C59.6744 39.6458 59.3957 39.3672 59.052 39.3672C58.7083 39.3672 58.4297 39.6458 58.4297 39.9895C58.4297 40.3332 58.7083 40.6119 59.052 40.6119Z" fill="white"/>
<path d="M22.9505 48.6978C23.2942 48.6978 23.5728 48.4192 23.5728 48.0755C23.5728 47.7318 23.2942 47.4531 22.9505 47.4531C22.6068 47.4531 22.3281 47.7318 22.3281 48.0755C22.3281 48.4192 22.6068 48.6978 22.9505 48.6978Z" fill="white"/>
<path d="M60.0851 54.926H58.0106V52.8516C57.0508 52.8516 25.1526 52.8516 23.9894 52.8516V54.926H21.9149C21.6857 54.926 21.5 55.1117 21.5 55.3409C21.5 55.5701 21.6857 55.7558 21.9149 55.7558H60.0851C60.3143 55.7558 60.5 55.5701 60.5 55.3409C60.5 55.1117 60.3143 54.926 60.0851 54.926Z" fill="white"/>
</svg>
