<svg width="83" height="82" viewBox="0 0 83 82" fill="none" xmlns="http://www.w3.org/2000/svg">
<circle cx="41.5" cy="41" r="41" fill="#1C3752"/>
<path d="M21.5 48.6562V52.084C21.5 52.715 22.0116 53.2266 22.6426 53.2266H59.3574C59.9884 53.2266 60.5 52.715 60.5 52.084V48.6562H21.5Z" fill="white"/>
<path d="M59.3574 22H22.6426C22.0116 22 21.5 22.5116 21.5 23.1426V46.375H60.5V23.1426C60.5 22.5116 59.9884 22 59.3574 22ZM53.1875 42.9473H28.8125C28.1815 42.9473 27.6699 42.4357 27.6699 41.8047C27.6699 41.1737 28.1815 40.6621 28.8125 40.6621H29.1934V40.2812C29.1934 34.1565 33.8814 29.1067 39.8574 28.5301V26.5703C39.8574 25.9393 40.369 25.4277 41 25.4277C41.631 25.4277 42.1426 25.9393 42.1426 26.5703V28.5301C48.1186 29.1067 52.8066 34.1565 52.8066 40.2812V40.6621H53.1875C53.8185 40.6621 54.3301 41.1737 54.3301 41.8047C54.3301 42.4357 53.8185 42.9473 53.1875 42.9473Z" fill="white"/>
<path d="M40.998 30.7578C35.7479 30.7578 31.4766 35.0292 31.4766 40.2793V40.6602H50.5195V40.2793C50.5195 35.0292 46.2482 30.7578 40.998 30.7578Z" fill="white"/>
<path d="M35.2843 55.807C34.965 57.4036 33.5514 58.5625 31.9232 58.5625H28.8145C28.1834 58.5625 27.6719 59.0741 27.6719 59.7051C27.6719 60.3361 28.1834 60.8477 28.8145 60.8477H53.1895C53.8205 60.8477 54.332 60.3361 54.332 59.7051C54.332 59.0741 53.8205 58.5625 53.1895 58.5625H50.0807C48.4525 58.5625 47.0389 57.4036 46.7196 55.807L46.6613 55.5156H35.3426L35.2843 55.807Z" fill="white"/>
</svg>
