<svg width="83" height="82" viewBox="0 0 83 82" fill="none" xmlns="http://www.w3.org/2000/svg">
<circle cx="41.5" cy="41" r="41" fill="#1C3752"/>
<path fill-rule="evenodd" clip-rule="evenodd" d="M43.6623 23.6787C43.6623 26.8099 46.2096 29.3573 49.3409 29.3573C52.4722 29.3573 55.0196 26.8099 55.0196 23.6787C55.0196 20.5474 52.4722 18 49.3409 18C46.2096 18 43.6623 20.5474 43.6623 23.6787ZM47.4622 22.3414C47.4622 21.4944 48.0271 20.7763 48.8003 20.5438V20.3464C48.8003 20.0482 49.0418 19.8058 49.3409 19.8058C49.6392 19.8058 49.8816 20.0482 49.8816 20.3464V20.5447C50.3402 20.6843 50.7385 20.9961 50.98 21.4286C51.126 21.6891 51.0332 22.0189 50.7728 22.1648C50.5123 22.3099 50.1825 22.2171 50.0366 21.9567C49.8951 21.7026 49.6275 21.5449 49.3409 21.5449C48.9012 21.5449 48.5435 21.9026 48.5435 22.3414C48.5435 22.7812 48.9012 23.138 49.3409 23.138C50.3763 23.138 51.2188 23.9805 51.2188 25.0159C51.2188 25.8638 50.6538 26.5811 49.8816 26.8135V27.0109C49.8816 27.31 49.6392 27.5515 49.3409 27.5515C49.0418 27.5515 48.8003 27.31 48.8003 27.0109V26.8126C48.3407 26.6739 47.9424 26.3612 47.7009 25.9287C47.555 25.6683 47.6478 25.3394 47.9082 25.1934C48.1695 25.0474 48.4984 25.1402 48.6444 25.4015C48.7868 25.6547 49.0535 25.8124 49.3409 25.8124C49.7798 25.8124 50.1375 25.4556 50.1375 25.0159C50.1375 24.577 49.7798 24.2193 49.3409 24.2193C48.3047 24.2193 47.4622 23.3768 47.4622 22.3414ZM37.1411 28.7058C38.3702 28.5391 39.6299 28.5166 40.8923 28.6455C40.4877 29.8484 39.9462 30.9856 39.2866 32.0363L37.1411 28.7058ZM38.6243 33.0058L35.985 28.9068C34.2891 29.269 32.6717 29.9115 31.2101 30.8216C30 31.6281 28.9124 32.6184 27.9788 33.7555L30.8993 38.2898C32.3203 37.9095 33.6719 37.3292 34.9064 36.5606C36.3391 35.6064 37.5943 34.3998 38.6243 33.0058ZM35.3587 32.2786C36.0913 33.4167 35.7615 34.9378 34.6244 35.6703C34.2234 35.929 33.7665 36.0623 33.3007 36.0623C33.1267 36.0623 32.951 36.0434 32.7762 36.0055C32.1355 35.8668 31.5877 35.4874 31.2327 34.936C30.8776 34.3854 30.7587 33.7294 30.8975 33.0887C31.0362 32.448 31.4165 31.8993 31.967 31.5452C32.5185 31.1901 33.1745 31.0712 33.8152 31.21C34.4549 31.3478 35.0037 31.7281 35.3587 32.2786ZM33.0051 34.9486C32.6474 34.8711 32.3401 34.6584 32.1419 34.3502C31.9436 34.0421 31.8769 33.6753 31.9544 33.3176C32.0319 32.959 32.2446 32.6526 32.5527 32.4544C32.7816 32.3066 33.0393 32.2354 33.2934 32.2354C33.7449 32.2354 34.1873 32.458 34.4495 32.8644C34.8595 33.5005 34.6748 34.3511 34.0386 34.7611C33.7314 34.9594 33.3637 35.0261 33.0051 34.9486ZM27.759 38.7935C27.6689 38.334 27.4859 37.8861 27.2102 37.4581C26.9345 37.0292 26.6029 36.6787 26.2208 36.4065C26.5389 35.801 26.893 35.2207 27.2814 34.6692L29.7783 38.5466C29.116 38.6719 28.4411 38.7548 27.759 38.7935ZM23.7194 32.8013C25.19 32.0579 26.6659 31.765 28.187 31.9146C27.4904 32.6138 26.8561 33.3798 26.2911 34.2034C25.472 33.542 24.5673 33.1076 23.7194 32.8013ZM30.0081 42.5646C30.0793 41.6653 30.0585 40.6615 29.7945 39.6405C30.7785 39.4666 31.7391 39.2053 32.6636 38.8602C32.1716 40.3082 31.2939 41.5328 30.0081 42.5646ZM25.2503 41.1868C25.1485 41.03 24.9755 40.939 24.7953 40.939C24.7439 40.939 24.6926 40.9462 24.6412 40.9615C23.4761 41.3076 22.4759 41.2697 21.5 41.1354C21.7811 40.192 22.1605 39.2657 22.958 38.3475C23.1157 38.1664 23.1346 37.9023 23.0039 37.7005L22.5308 36.9652C23.8627 36.6327 25.4062 36.6543 26.301 38.0429C27.1958 39.4324 26.5767 40.848 25.7234 41.9221L25.2503 41.1868ZM54.8331 30.1638C54.5384 30.1169 54.3375 29.8394 54.3843 29.5447C54.4312 29.2501 54.7078 29.0482 55.0025 29.0951L58.6762 29.6772C58.8375 29.7024 58.9781 29.7998 59.0601 29.9412C59.1412 30.0818 59.1547 30.253 59.0961 30.4053L57.7634 33.8772C57.6814 34.0925 57.4759 34.2241 57.2588 34.2241C57.1939 34.2241 57.129 34.2124 57.0651 34.1881C56.7866 34.0817 56.6469 33.7681 56.7542 33.4897L57.5399 31.4424L23.3373 51.1898C23.2526 51.2384 23.1598 51.2619 23.0679 51.2619C22.8814 51.2619 22.6993 51.1646 22.5993 50.9915C22.4497 50.7329 22.5381 50.4022 22.7967 50.2527L56.9993 30.5062L54.8331 30.1638ZM50.2006 59.4843H44.7463V42.7502H50.2006V59.4843ZM60.5 37.1634V59.4843H55.0457V37.1634H60.5ZM34.4459 59.4843V48.6433H39.9002V59.4843H34.4459ZM24.1474 59.4843V53.611H29.6017V59.4843H24.1474Z" fill="white"/>
</svg>
