<svg width="105" height="94" viewBox="0 0 105 94" fill="none" xmlns="http://www.w3.org/2000/svg">
<path d="M0 62.625C0 33.63 23.5051 10.125 52.5 10.125C81.4949 10.125 105 33.6301 105 62.625V64.4615C105 80.4079 92.0728 93.3351 76.1263 93.3351H28.8737C12.9272 93.3351 0 80.4079 0 64.4614V62.625Z" fill="#333333"/>
<path d="M60.1318 0C53.1972 6.78787 47.7979 9.70402 35.0469 13.0342L54.9151 11.0118C53.0369 10.056 56.7325 8.68268 60.1318 0Z" fill="#333333"/>
<path fill-rule="evenodd" clip-rule="evenodd" d="M30.4788 82.4743C31.0276 82.4743 31.5699 82.4347 32.1041 82.3574C32.5276 82.4325 32.9636 82.4718 33.4087 82.4718H70.9286C71.4719 82.4718 72.0015 82.4133 72.5115 82.3024C73.1561 82.4159 73.8129 82.4743 74.4794 82.4743C83.1058 82.4743 90.0988 72.6828 90.0988 60.6044C90.0988 48.5259 83.1058 38.7344 74.4794 38.7344C65.8537 38.7344 58.861 48.5245 58.86 60.6018H46.0982C46.0972 48.5245 39.1045 38.7344 30.4788 38.7344C21.8524 38.7344 14.8594 48.5259 14.8594 60.6044C14.8594 72.6828 21.8524 82.4743 30.4788 82.4743Z" fill="white"/>
<path d="M60.2524 59.8266C54.1971 58.3715 50.7857 58.2966 44.7305 59.8266C46.4411 65.3545 48.4207 67.1692 53.563 68.4395C57.3664 66.3184 58.8282 64.4337 60.2524 59.8266Z" fill="#FF9A00"/>
<ellipse cx="30.1362" cy="51.607" rx="4.9174" ry="4.97812" fill="#333333"/>
<ellipse cx="73.5346" cy="51.607" rx="4.9174" ry="4.97812" fill="#333333"/>
<ellipse cx="75.0832" cy="53.8321" rx="0.579267" ry="0.617287" fill="#9DDDFF"/>
<ellipse cx="31.8575" cy="53.5196" rx="0.701219" ry="0.617285" fill="#9DDDFF"/>
</svg>
