<svg width="83" height="82" viewBox="0 0 83 82" fill="none" xmlns="http://www.w3.org/2000/svg">
<circle cx="41.5" cy="41" r="41" fill="#1C3752"/>
<path d="M59.9324 57.7169L58.1993 54.3056L59.9362 50.7763C60.0312 50.5825 60.0199 50.3531 59.9055 50.17C59.7912 49.9869 59.5912 49.875 59.3749 49.875H55.6249V47.375C55.6249 47.0294 55.3456 46.75 54.9999 46.75H54.5862C56.0805 44.3031 56.8749 41.5138 56.8749 38.625C56.8749 30.0094 49.8655 23 41.2499 23C32.6343 23 25.6249 30.0094 25.6249 38.625C25.6249 41.5138 26.4199 44.3037 27.9137 46.75H27.4999C27.1549 46.75 26.8749 47.0294 26.8749 47.375V49.875H23.1249C22.9087 49.875 22.7081 49.9869 22.5943 50.17C22.4806 50.3531 22.4687 50.5825 22.5643 50.7763L24.3012 54.3056L22.5681 57.7169C22.4699 57.9113 22.4787 58.1419 22.5924 58.3275C22.7062 58.5119 22.9074 58.625 23.1249 58.625H31.8749C32.2199 58.625 32.4999 58.3456 32.4999 58V55.5H49.9999V58C49.9999 58.3456 50.2793 58.625 50.6249 58.625H59.3749C59.5924 58.625 59.7943 58.5119 59.908 58.3269C60.0212 58.1419 60.0305 57.9106 59.9324 57.7169ZM53.1362 46.7106C53.128 46.7231 53.1268 46.7375 53.1193 46.75H49.7955C50.6762 44.4837 51.1687 41.9169 51.2355 39.25H55.6018C55.4868 41.925 54.6468 44.4931 53.1362 46.7106ZM34.4124 39.25C34.3874 39.4562 34.3749 39.6688 34.3749 39.875C34.3749 43.6688 37.4562 46.75 41.2499 46.75C45.0437 46.75 48.1249 43.6688 48.1249 39.875C48.1249 39.6688 48.1124 39.4562 48.0874 39.25H49.9855C49.9149 41.9412 49.3918 44.5206 48.453 46.75H41.2499H34.0468C33.108 44.5206 32.5855 41.9412 32.5143 39.25H34.4124ZM32.5093 38C32.5705 35.6575 32.9755 33.4606 33.6418 31.5375C35.0124 31.8644 36.5143 32.0988 38.0843 32.2338L38.0812 32.2375C36.7312 33.825 35.2624 35.9062 34.6624 38H32.5093ZM44.4155 32.2338C45.9855 32.0988 47.4874 31.865 48.858 31.5375C49.5243 33.4606 49.9293 35.6575 49.9905 38H47.8374C47.2374 35.9062 45.7687 33.825 44.4187 32.2375L44.4155 32.2338ZM52.8424 30.1375C54.4743 32.3606 55.483 35.0675 55.6093 38H51.2399C51.178 35.5544 50.7562 33.2513 50.053 31.2188C51.0918 30.9125 52.0237 30.5469 52.8424 30.1375ZM52.0399 29.1419C51.318 29.4831 50.503 29.7887 49.6031 30.0494C48.7668 28.0675 47.6499 26.4 46.3412 25.1844C48.553 26.025 50.5037 27.3962 52.0399 29.1419ZM41.8749 24.2906C44.5699 24.605 46.9305 26.9313 48.4024 30.3606C46.8662 30.7156 45.1555 30.9525 43.3612 31.055C42.7055 30.3681 42.1624 29.8625 41.8749 29.6V24.2906ZM41.8749 36.75C42.2199 36.75 42.4999 37.03 42.4999 37.375V38.625H43.7499C44.0949 38.625 44.3749 38.905 44.3749 39.25V40.5C44.3749 40.845 44.0949 41.125 43.7499 41.125H42.4999V42.375C42.4999 42.72 42.2199 43 41.8749 43H40.6249C40.2799 43 39.9999 42.72 39.9999 42.375V41.125H38.7499C38.4049 41.125 38.1249 40.845 38.1249 40.5V39.25C38.1249 38.905 38.4049 38.625 38.7499 38.625H39.9999V37.375C39.9999 37.03 40.2799 36.75 40.6249 36.75H41.8749ZM40.6249 24.2906V29.6C40.3374 29.8625 39.7943 30.3681 39.1387 31.055C37.3443 30.9525 35.6337 30.7156 34.0974 30.3606C35.5693 26.9313 37.9299 24.605 40.6249 24.2906ZM36.158 25.1844C34.8493 26.3994 33.733 28.0669 32.8968 30.0494C31.9968 29.7887 31.1818 29.4837 30.4599 29.1419C31.9962 27.3962 33.9468 26.025 36.158 25.1844ZM29.658 30.1375C30.4762 30.5469 31.408 30.9125 32.4474 31.2181C31.7437 33.2513 31.3224 35.5544 31.2605 38H26.8905C27.0168 35.0675 28.0255 32.3606 29.658 30.1375ZM26.898 39.25H31.2643C31.3312 41.9169 31.8243 44.4837 32.7043 46.75H29.3812C29.3737 46.7375 29.373 46.7225 29.3643 46.7106C27.8537 44.4937 27.013 41.9256 26.898 39.25ZM24.1437 57.375L25.5574 54.5931C25.6468 54.4175 25.648 54.2106 25.5612 54.0337L24.1293 51.125H26.8749V54.875C26.8749 55.0769 26.9724 55.2663 27.1368 55.3831L29.9249 57.375H24.1437ZM28.1249 54.25V48H54.3749V54.25H28.1249ZM52.5749 57.375L55.363 55.3831C55.5274 55.2663 55.6249 55.0769 55.6249 54.875V51.125H58.3712L56.9393 54.0337C56.8524 54.21 56.8537 54.4169 56.9431 54.5931L58.3562 57.375H52.5749Z" fill="white"/>
</svg>
