<svg width="83" height="82" viewBox="0 0 83 82" fill="none" xmlns="http://www.w3.org/2000/svg">
<circle cx="41.5" cy="41" r="41" fill="#1C3752"/>
<path fill-rule="evenodd" clip-rule="evenodd" d="M45.1955 56.8555C45.1954 56.6538 45.2486 56.4557 45.3498 56.2812C45.4509 56.1067 45.5964 55.962 45.7714 55.8618V54.5267L42.1377 54.5317V53.3986L46.3402 53.3928C46.4907 53.3928 46.635 53.4525 46.7416 53.5586C46.8482 53.6648 46.9084 53.8089 46.909 53.9593V55.8618C47.0835 55.9617 47.2287 56.1059 47.3298 56.2797C47.431 56.4536 47.4845 56.651 47.4851 56.8521C47.4857 57.0533 47.4332 57.251 47.3331 57.4254C47.2329 57.5999 47.0886 57.7448 46.9146 57.8457C46.7406 57.9466 46.5431 57.9999 46.342 58.0002C46.1408 58.0005 45.9432 57.9478 45.7689 57.8474C45.5946 57.747 45.4498 57.6025 45.3492 57.4284C45.2485 57.2542 45.1955 57.0566 45.1955 56.8555ZM37.7691 56.7194C37.7691 52.8793 33.1169 50.9526 30.4017 53.6678C30.2828 53.7868 30.1415 53.8811 29.9861 53.9455C29.8307 54.0099 29.664 54.0431 29.4958 54.0431C29.3275 54.0431 29.1609 54.0099 29.0055 53.9455C28.8501 53.8811 28.7088 53.7868 28.5899 53.6678L25.8325 50.9101C25.5923 50.6698 25.4573 50.3439 25.4573 50.0041C25.4573 49.6643 25.5923 49.3385 25.8325 49.0982C28.5478 46.383 26.6211 41.7308 22.7809 41.7308C22.4412 41.7308 22.1155 41.5959 21.8753 41.3557C21.635 41.1156 21.5001 40.7899 21.5 40.4502V36.5501C21.5 36.2104 21.635 35.8846 21.8752 35.6444C22.1154 35.4042 22.4412 35.2692 22.7809 35.2692C26.6258 35.2692 28.5512 30.6205 25.8325 27.9018C25.5923 27.6615 25.4573 27.3357 25.4573 26.9959C25.4573 26.6561 25.5923 26.3302 25.8325 26.0899L28.5903 23.3322C28.7092 23.2132 28.8505 23.1189 29.0059 23.0545C29.1613 22.9901 29.328 22.9569 29.4962 22.9569C29.6645 22.9569 29.8311 22.9901 29.9865 23.0545C30.1419 23.1189 30.2832 23.2132 30.4021 23.3322C33.1173 26.0474 37.7696 24.1203 37.7696 20.2805C37.7696 19.9409 37.9046 19.6152 38.1447 19.3751C38.3849 19.135 38.7105 19.0001 39.0501 19H40.7564C40.821 19.0001 40.8829 19.0259 40.9286 19.0715C40.9743 19.1172 41 19.1791 41.0002 19.2438V28.7301C41.0002 28.7937 40.9753 28.8548 40.9309 28.9004C40.8865 28.9459 40.826 28.9723 40.7624 28.9738C38.2761 29.0346 35.912 30.065 34.175 31.8449C32.438 33.6249 31.4657 36.0134 31.4657 38.5005C31.4657 40.9876 32.438 43.3761 34.175 45.156C35.912 46.936 38.2761 47.9664 40.7624 48.0271C40.826 48.0287 40.8865 48.055 40.931 48.1006C40.9754 48.1461 41.0003 48.2073 41.0002 48.2709V57.7566C41.0001 57.8212 40.9744 57.8831 40.9287 57.9288C40.883 57.9745 40.8211 58.0002 40.7565 58.0003H39.0501C38.8819 58.0003 38.7154 57.9672 38.5599 57.9028C38.4045 57.8385 38.2633 57.7441 38.1444 57.6252C38.0254 57.5062 37.9311 57.365 37.8667 57.2096C37.8023 57.0542 37.7692 56.8876 37.7692 56.7194H37.7691ZM43.4133 32.5067C43.732 32.9234 43.9991 33.3772 44.2088 33.8581C44.5494 33.7746 44.8725 33.6786 45.1757 33.5714C44.6491 33.1247 44.0541 32.7653 43.4136 32.507L43.4133 32.5067ZM44.6061 34.9293C44.8955 35.9054 45.0609 36.914 45.0986 37.9314H47.4352C47.3246 36.6592 46.8376 35.4487 46.0362 34.4544C45.5715 34.6465 45.0936 34.8052 44.6062 34.9294L44.6061 34.9293ZM45.0986 39.0689C45.0603 40.1154 44.8861 41.1524 44.5806 42.154C45.0575 42.2745 45.5255 42.4278 45.9813 42.6129C46.8148 41.6067 47.3219 40.3705 47.4352 39.0689H45.0986ZM44.1723 43.223C43.9691 43.6744 43.7144 44.1008 43.4134 44.4937C44.0232 44.2477 44.5919 43.9099 45.0997 43.4921C44.808 43.3918 44.498 43.3017 44.1723 43.223ZM38.587 44.4936C38.286 44.1007 38.0313 43.6743 37.8281 43.2229C37.5024 43.3017 37.1924 43.3918 36.9007 43.4921C37.4085 43.9099 37.9772 44.2476 38.587 44.4936ZM37.4198 42.154C37.1142 41.1524 36.94 40.1154 36.9017 39.0689H34.5655C34.6787 40.3705 35.1857 41.6067 36.019 42.6129C36.4748 42.4278 36.9428 42.2745 37.4198 42.154ZM36.9017 37.9314C36.9393 36.914 37.1048 35.9054 37.3941 34.9294C36.9067 34.8052 36.4289 34.6465 35.9641 34.4544C35.1628 35.4487 34.6757 36.6592 34.5651 37.9314H36.9017ZM37.7913 33.8581C38.001 33.3773 38.2681 32.9235 38.5869 32.5068C37.9463 32.765 37.3514 33.1244 36.8248 33.5712C37.1277 33.6783 37.4508 33.7743 37.7917 33.8578L37.7913 33.8581ZM41.5689 32.4054V34.2161C42.0687 34.1976 42.5671 34.1524 43.0621 34.0807C42.746 33.4426 42.2429 32.6994 41.5689 32.4054ZM40.4314 32.4054C39.7577 32.6991 39.2541 33.4428 38.9383 34.0807C39.4332 34.1524 39.9316 34.1976 40.4314 34.2161V32.4054ZM38.5076 35.1637C38.2332 36.0623 38.076 36.9925 38.04 37.9314H40.4314V35.3543C39.7867 35.3321 39.1441 35.2685 38.5076 35.1637ZM38.04 39.0689C38.0767 40.0378 38.2431 40.9973 38.535 41.9219C39.1626 41.8199 39.796 41.7577 40.4314 41.7358V39.0689H38.04ZM38.9805 43.0033C39.2947 43.6127 39.7815 44.3115 40.4314 44.5949V42.874C39.9459 42.892 39.4616 42.9352 38.9805 43.0033ZM41.5689 44.5949C42.2189 44.3115 42.7055 43.613 43.0198 43.0033C42.5387 42.9351 42.0545 42.8919 41.5689 42.874V44.5949ZM43.4653 41.9218C43.7572 40.9973 43.9236 40.0377 43.9603 39.0689H41.5689V41.7358C42.2043 41.7577 42.8377 41.8199 43.4653 41.9219V41.9218ZM43.9603 37.9314C43.9243 36.9926 43.7671 36.0623 43.4927 35.1638C42.8562 35.2685 42.2136 35.3321 41.5689 35.3543V37.9314H43.9603ZM42.1377 22.4687L45.7714 22.4736V21.1385C45.5524 21.0131 45.381 20.8189 45.2837 20.586C45.1865 20.3531 45.169 20.0946 45.2338 19.8507C45.2987 19.6068 45.4424 19.3912 45.6424 19.2374C45.8425 19.0835 46.0878 19.0001 46.3402 19.0001C46.5926 19.0001 46.8379 19.0835 47.038 19.2374C47.238 19.3912 47.3817 19.6068 47.4466 19.8507C47.5114 20.0946 47.4939 20.3531 47.3967 20.586C47.2994 20.8189 47.128 21.0131 46.909 21.1385V23.0409C46.9084 23.1914 46.8482 23.3355 46.7416 23.4417C46.635 23.5479 46.4907 23.6075 46.3402 23.6075L42.1377 23.6017V22.4687ZM42.1377 25.6781V26.8111L51.2154 26.8181C51.3659 26.8181 51.5102 26.7585 51.6168 26.6523C51.7234 26.5462 51.7836 26.4021 51.7842 26.2516V24.3487C52.0032 24.2234 52.1746 24.0291 52.2718 23.7962C52.369 23.5634 52.3865 23.3049 52.3217 23.061C52.2568 22.8171 52.1132 22.6015 51.9131 22.4477C51.713 22.2939 51.4678 22.2105 51.2154 22.2105C50.9631 22.2105 50.7178 22.2939 50.5177 22.4477C50.3176 22.6015 50.174 22.8171 50.1091 23.061C50.0443 23.3049 50.0618 23.5634 50.159 23.7962C50.2562 24.0291 50.4276 24.2234 50.6466 24.3487V25.6842L42.1377 25.6777V25.6781ZM57.8583 27.812H55.1053V34.0907C55.1053 34.2415 55.0454 34.3862 54.9387 34.4929C54.832 34.5995 54.6874 34.6594 54.5365 34.6594H47.5557C47.3188 34.256 47.0451 33.8752 46.7383 33.5219H53.9678V27.2428C53.9678 27.092 54.0277 26.9473 54.1344 26.8406C54.241 26.734 54.3857 26.674 54.5365 26.674H57.8584C57.9838 26.455 58.178 26.2836 58.4109 26.1864C58.6437 26.0892 58.9022 26.0717 59.1461 26.1365C59.39 26.2014 59.6056 26.345 59.7594 26.5451C59.9132 26.7452 59.9966 26.9904 59.9966 27.2428C59.9966 27.4952 59.9132 27.7404 59.7594 27.9405C59.6056 28.1406 59.39 28.2842 59.1461 28.3491C58.9022 28.4139 58.6437 28.3964 58.4109 28.2992C58.178 28.202 57.9838 28.0306 57.8584 27.8116L57.8583 27.812ZM58.3618 39.0689H48.5761C48.6041 38.6903 48.6041 38.3101 48.5761 37.9314H58.3618C58.4872 37.7124 58.6814 37.541 58.9143 37.4438C59.1472 37.3466 59.4057 37.329 59.6495 37.3939C59.8934 37.4588 60.109 37.6024 60.2628 37.8025C60.4166 38.0025 60.5 38.2478 60.5 38.5002C60.5 38.7525 60.4166 38.9978 60.2628 39.1979C60.109 39.3979 59.8934 39.5416 59.6495 39.6064C59.4057 39.6713 59.1472 39.6538 58.9143 39.5566C58.6814 39.4594 58.4872 39.2879 58.3618 39.0689ZM57.8581 50.3263H54.5365C54.3857 50.3263 54.241 50.2664 54.1344 50.1597C54.0277 50.053 53.9678 49.9084 53.9678 49.7575V43.4788H46.7383C47.0451 43.1255 47.3188 42.7447 47.5558 42.3413H54.5365C54.6874 42.3413 54.832 42.4012 54.9387 42.5079C55.0454 42.6145 55.1053 42.7592 55.1053 42.91V49.1888H57.8584C57.9838 48.9698 58.178 48.7983 58.4109 48.7011C58.6437 48.6039 58.9022 48.5864 59.1461 48.6513C59.39 48.7161 59.6056 48.8598 59.7594 49.0598C59.9132 49.2599 59.9966 49.5052 59.9966 49.7575C59.9966 50.0099 59.9132 50.2552 59.7594 50.4552C59.6056 50.6553 59.39 50.7989 59.1461 50.8638C58.9022 50.9287 58.6437 50.9111 58.4109 50.8139C58.178 50.7167 57.9838 50.5453 57.8584 50.3263H57.8581ZM42.1377 50.1896V51.3227L50.6466 51.3161V52.6516C50.4276 52.777 50.2562 52.9712 50.1589 53.2041C50.0617 53.437 50.0442 53.6955 50.109 53.9394C50.1739 54.1833 50.3176 54.3989 50.5176 54.5527C50.7177 54.7066 50.963 54.79 51.2154 54.79C51.4678 54.79 51.7131 54.7066 51.9132 54.5527C52.1132 54.3989 52.2569 54.1833 52.3218 53.9394C52.3866 53.6955 52.3691 53.437 52.2719 53.2041C52.1746 52.9712 52.0032 52.777 51.7842 52.6516V50.7491C51.7836 50.5987 51.7234 50.4546 51.6168 50.3484C51.5102 50.2422 51.3659 50.1826 51.2154 50.1826L42.1377 50.1896Z" fill="white"/>
</svg>
