<svg width="212" height="82" viewBox="0 0 212 82" fill="none" xmlns="http://www.w3.org/2000/svg">
<rect width="212" height="82" rx="9" fill="black"/>
<path d="M97.896 47V32H93.264V29.12H105.744V32H101.184V47H97.896ZM109.319 47L104.831 33.944H108.143L111.431 43.856L110.279 43.832L113.783 33.944H116.567L120.047 43.832L118.895 43.856L122.183 33.944H125.495L121.007 47H118.199L114.647 36.656H115.703L112.103 47H109.319ZM126.738 47V33.944H129.882V47H126.738ZM126.738 32.48V29.12H129.882V32.48H126.738ZM138.257 47.144C136.785 47.144 135.641 46.744 134.825 45.944C134.025 45.128 133.625 43.984 133.625 42.512V36.752H131.369V33.944H131.609C132.249 33.944 132.745 33.776 133.097 33.44C133.449 33.104 133.625 32.616 133.625 31.976V30.968H136.769V33.944H139.769V36.752H136.769V42.344C136.769 42.776 136.841 43.144 136.985 43.448C137.145 43.752 137.385 43.984 137.705 44.144C138.041 44.304 138.465 44.384 138.977 44.384C139.089 44.384 139.217 44.376 139.361 44.36C139.521 44.344 139.673 44.328 139.817 44.312V47C139.593 47.032 139.337 47.064 139.049 47.096C138.761 47.128 138.497 47.144 138.257 47.144ZM147.691 47.144C146.219 47.144 145.075 46.744 144.259 45.944C143.459 45.128 143.059 43.984 143.059 42.512V36.752H140.803V33.944H141.043C141.683 33.944 142.179 33.776 142.531 33.44C142.883 33.104 143.059 32.616 143.059 31.976V30.968H146.203V33.944H149.203V36.752H146.203V42.344C146.203 42.776 146.275 43.144 146.419 43.448C146.579 43.752 146.819 43.984 147.139 44.144C147.475 44.304 147.899 44.384 148.411 44.384C148.523 44.384 148.651 44.376 148.795 44.36C148.955 44.344 149.107 44.328 149.251 44.312V47C149.027 47.032 148.771 47.064 148.483 47.096C148.195 47.128 147.931 47.144 147.691 47.144ZM157.248 47.288C155.904 47.288 154.728 46.984 153.72 46.376C152.712 45.768 151.928 44.944 151.368 43.904C150.808 42.864 150.528 41.712 150.528 40.448C150.528 39.136 150.808 37.976 151.368 36.968C151.944 35.944 152.72 35.136 153.696 34.544C154.688 33.952 155.792 33.656 157.008 33.656C158.032 33.656 158.928 33.824 159.696 34.16C160.48 34.496 161.144 34.96 161.688 35.552C162.232 36.144 162.648 36.824 162.936 37.592C163.224 38.344 163.368 39.16 163.368 40.04C163.368 40.264 163.352 40.496 163.32 40.736C163.304 40.976 163.264 41.184 163.2 41.36H153.12V38.96H161.424L159.936 40.088C160.08 39.352 160.04 38.696 159.816 38.12C159.608 37.544 159.256 37.088 158.76 36.752C158.28 36.416 157.696 36.248 157.008 36.248C156.352 36.248 155.768 36.416 155.256 36.752C154.744 37.072 154.352 37.552 154.08 38.192C153.824 38.816 153.728 39.576 153.792 40.472C153.728 41.272 153.832 41.984 154.104 42.608C154.392 43.216 154.808 43.688 155.352 44.024C155.912 44.36 156.552 44.528 157.272 44.528C157.992 44.528 158.6 44.376 159.096 44.072C159.608 43.768 160.008 43.36 160.296 42.848L162.84 44.096C162.584 44.72 162.184 45.272 161.64 45.752C161.096 46.232 160.448 46.608 159.696 46.88C158.96 47.152 158.144 47.288 157.248 47.288ZM165.272 47V33.944H168.224V36.848L167.984 36.416C168.288 35.44 168.76 34.76 169.4 34.376C170.056 33.992 170.84 33.8 171.752 33.8H172.52V36.584H171.392C170.496 36.584 169.776 36.864 169.232 37.424C168.688 37.968 168.416 38.736 168.416 39.728V47H165.272Z" fill="white"/>
<rect x="31" y="13" width="57" height="56" fill="white"/>
<path d="M61.6719 40.3956L76.2993 61.3179H70.2962L58.3599 44.2452V44.2442L56.6075 41.738L42.6641 21.793H48.6672L59.9195 37.8893L61.6719 40.3956Z" fill="black"/>
<path d="M84.9766 9H34.0234C30.1446 9 27 12.1446 27 16.0234V66.9766C27 70.8554 30.1446 74 34.0234 74H84.9766C88.8554 74 92 70.8554 92 66.9766V16.0234C92 12.1446 88.8554 9 84.9766 9ZM68.4591 64.1213L56.3803 46.5421L41.2576 64.1213H37.3491L54.6449 44.0174L37.3491 18.8454H50.5409L61.9787 35.4916L76.2988 18.8454H80.2073L63.7147 38.0169H63.7136L81.6509 64.1213H68.4591Z" fill="black"/>
</svg>
